<svg xmlns="http://www.w3.org/2000/svg" width="217.722" height="68.096"><g transform="matrix(1, 0.017, -0.017, 1, 1.123, 0)"><path d="M10.938,32.078l-1.2-.03.328-.416-1.482-.417c-.222-.018-.983.76-1.364.26l.927-.326c.074-.606-.924-.064-1.442-.076l-1.326-.942-1.2.018A1.06,1.06,0,0,1,4.09,29.9c-.057-.452-.111-.448-1.052-.272a.374.374,0,0,1-.464-.274L3.839,29.1c-.042-.256-.079-.478-.129-.777l-1.337.562c0-.132.006-.312.013-.571l-1.5.656c.125-.375.233-.7.348-1.045L0,27.959l1.786-1.3.872.053a8.246,8.246,0,0,1,1-1.153,13.756,13.756,0,0,1,1.575-.946l3.119-.145c.445-.248,1.1-.555.766-.9-.449-.1-1.4.458-1.585.023a7.455,7.455,0,0,0,2.423-.57l.506-.335a22.812,22.812,0,0,0,4.366-.943c.533-.067,1.092-.168,1.6-.191a13.256,13.256,0,0,1,1.372.065l.176-.134L19.1,21.6l.437-.747,1.257-.275a10.448,10.448,0,0,1,3.961-1.747,23.6,23.6,0,0,1-2.541-.26,11.4,11.4,0,0,1-1.81-.7c.2-.331.4-.659.671-1.111l-2.122-.276c-.021.328-.036.562-.052.819l-1.331.549.288.493-1.765.93-.314-.508,1.535-.439c-.013-.132-.028-.291-.046-.474l-2.14.6c-.01-.207-.017-.37-.027-.575l-2.011.437,2.551-1.058-.309-.836-.027.026,1.13.343,1.407-.323c-.048-.348-.092-.661-.139-.992l-.686.273,1.312-2.076,1.409-.167a15.988,15.988,0,0,0,3.324-.479l.725.263,2.026-.273.7-.363a8.274,8.274,0,0,0,3.6-.613c.133-.332.267-.663.464-1.154-1.018.509-1.559,1.129-2.575,1.072l2.15-1.328q-.032-.056-.065-.111l-.962.217c.137-.411.283-.849.433-1.3l1.752-.052c.084-.17.135-.273.214-.429l3.256-.812-.605.722c.512-.1.956-.17,1.4-.291.334-.092.663-.281,1-.379a3.721,3.721,0,0,1,1.1-.226c.349.4,1.91-.264,1.99.391l.576-.309,5.784-.74c-.073-.341-.124-.575-.175-.812l-.791.115c.005-.03.011-.058.017-.087l.763-.2c.03-.145.057-.274.078-.382l1.655-.009.187-.4,1.641-.7-.076-.46.607-.07c-.069.191-.132.366-.247.69l.984-.668.621.294.648-.652-.883-.047.977-.566.887.288c.892-.151,1.686-.943,2.668-.7l-1.162.915,1.718-.336.349-.5.883-.117c-.207.263-.381.484-.539.684l.842.121L56.3,4.028l.308.29c-.138.33-.253.6-.458,1.1,1.166-.868,2.314-.519,3.585-1.342l-1.556.265c-.053-.1-.111-.208-.191-.358l.968-.072,1.7-1.266,1.572-.321,1.378.257.125-.17c.973-.1,2.011-.286,2.9-.287A22.311,22.311,0,0,0,69.6,2.008a11.655,11.655,0,0,1,2.828.282l1.591-.355.225.183,2.315-.545,1.1,1.01.731-.694.731.036.6-.459c1.362-.427,2.078-.189,2.52.209l2.092-.327-.045.141-.6.21a3.237,3.237,0,0,0-2.729,1.088l-.553.108c-.369.28-.659.482-.9.693A6.745,6.745,0,0,0,79,4.123l-.989.155c-.141.256-.243.44-.422.762l-.263-.714A2.71,2.71,0,0,1,78.822,3.6c.377-.055.655-.356.495-.571l-.971.394-1.4-.163c-.9.53-.857,1.145-1.854,1.622l-.259-.268.63-.222c.015-.046.029-.092.045-.137l-1.33.061L71.661,5.636l-1.019-.22,1.15-.406L73.157,3.6l-.549.04.713-.6.9.249,1.647-1.2c-.873.16-1.47.314-2,.354a1.977,1.977,0,0,0-1.606.516l.4.178L71.115,4.33c.064.116.127.232.221.406l-3.2.912c-.074.624.645.431,1.422.148.011.129.018.226.029.362L72.108,5.9l1.238.676.5-.507,1.126.034,1.668-.661c-.076.216-.14.4-.221.629l1.713-.416L78.908,6l.683-.755L78.7,4.968l1.4-.654.489-.005-.973.621.447.473-.851.561,1.438-.232c.464-.252.809-.419,1.1-.608s.54-.4.806-.6l.549.217-1.1.486.408.636,5.346-.26c-.156-.263-.243-.407-.336-.561l1.728-.879.567-.837a3.033,3.033,0,0,0-2.117.491l-3.074-.2-1.864.8c-.111-.478-.905.183-1.294.1L82.2,3.5l-1.717.443c.118-.1.269-.266.349-.277a1.427,1.427,0,0,0,1.095-.678A4.021,4.021,0,0,1,83.568,1.84l-.592.807,3.681-1.582L91.3.862l-.61.513.865.049-1.027.419c-.026.14-.053.288-.084.447L89.4,2.605c-.042.343,1.256-.048.382.665l1.486-.4c.1-.271.176-.493.274-.769l2.044.149L95.9,1.138l.355.282-1.331.544,1.937-.145L99.13.665l1.434-.1c-.007.02-.015.041-.022.062L99.167.93l.7.362-.6.332c.592.325,1.125-.226,1.55-.438A8.88,8.88,0,0,0,102.163.161c.121.326.181.491.269.728.971-.5,1.785-.718,2.246-.313a2.221,2.221,0,0,1,2,.13l1.11-.521,6.348-.144.39.6,1.63-.511L118.242,0l-.293.463a12.457,12.457,0,0,1,2.689-.339c1.6-.075,2.612.377,4.137.322l1.054-.422-.746,1.126,1.645-.235.8-.618c.146-.028.295-.067.431-.082a18.051,18.051,0,0,1,5.552.064A16.451,16.451,0,0,0,135.762.23c1.263.03,2.478.115,3.725.164.462.018.958,0,1.482,0l-.979.76,2.763-.974c-.262.364-.411.573-.476.664l.787.818,1.147-.577c.026-.134.046-.241.071-.379a2.5,2.5,0,0,1,.377-.008,3.77,3.77,0,0,0,1.984.1c.785-.185,1.095.077.815.617l1.286-.528.065.062-2.247,1.32,1.767-.481-.224.728a2.778,2.778,0,0,0-1.722.249c-.588.223-1.023-.3-1.767.36.1.051.148.137.254.127,1.07-.108,2.15-.23,3.314-.357.043-.146.074-.248.1-.351.434.272.988-.3,1.44-.258.061-.184.1-.291.142-.432l1.7-.6.851.288c.617-.042,1.67-.492,1.58.146,1.865-.266,2.509-.117,2.348.582,1.67-.406,3.094-.2,3.295.516l1.384-.006,1.432.85c.536.267,1.413.359.723,1.136.476.2,1.432.057,1.194.707l-1.221.6.582.335-.7.165-.343.618a9.541,9.541,0,0,0,1.027-.253c2.162-.8,2.53-.8,3.109.082l1.158.129,1.026-.613c1.326-.127,1.326-.127,1.539.173.94-.059,1.765-.167,2.475-.145,1.9.061,3.746.185,5.628.268,2.439.108,4.917.173,7.33.31,1.18.067,2.243.26,3.372.382.665.072,1.337.139,2.04.171a21.451,21.451,0,0,1,7.22,1.4.986.986,0,0,0,.41.115,6.829,6.829,0,0,1,3.992.809l.855-.3c.013.018.025.036.037.055l-1.6.881,1.753-.277-2.485.876-.5.84-1.792,1.077c.429.17.737-.055,1.142-.291a12.208,12.208,0,0,1,1.27-.549c.042-.129.087-.265.14-.429l1.079-.2c.028.139.051.26.079.4l-.857.24c.028.148.05.263.072.372l1.316-.268c-.6.405-1.3.734-1.316,1.264l2.081-.852c-.012-.161-.02-.277-.03-.392l.21-.061c.016.167.032.335.048.491l-.714.386c.049.286,1.148.339,2,.134l-.46.5,2.185-.4,1.072.344L206.946,15l.158.424,1.117-.129c-.034.112-.008.2-.09.263a9.037,9.037,0,0,1-2.559,1.164c-.886.3-1.761.631-2.753.99l-1.368-.3,1.154-.807-2.427.434.441-.639-.671-.437c-1.294.5-.346.806-.793,1.269l-1.289.4.844.594,1.307-.535c-1.387,1.043-1.035,1.53-.205,1.9l.489-.082c.167.45.321.865.522,1.41l.445-.472.288.12c-.4.242-.765.457-1.136.678l.3.814,1.475-.26c.474-.3.461-.864,1.564-.941.05.074.116.172.181.27l-.833.338.946.226-1.015.657c.028.033.057.066.087.1l2-.706c-.218,1.53-.756,2.1-2.7,2.893l-.252.707-.872.126-.159.151c.346.131.7.258,1.035.4.361.147.7.307,1.062.453a8.183,8.183,0,0,0,1.035.385,12.226,12.226,0,0,0,1.617.328c1.037.129,2.135.2,3.179.326q1.776.211,3.5.471c.89.135,1.75.3,2.6.465.974.19,1.575.565,1.428,1.3a6.493,6.493,0,0,1-2.735,1.464c-.728.146-1.438.205-2.146.283-.964.106-1.918.194-2.979.3-.168.65-.679,1.179-1.9,1.353-.712.471-.853.834-.427,1.03a1.472,1.472,0,0,1,1.006,1.378l-2.516,2.226-.9.172,1.691,2-.708.129c-.049.185-.1.367-.136.513l.661.329-2.561.9.274.425-1.314.4c-.438.684,1.286.338.872,1.077l-.941-.121-2.009.616c-.071.214-.151.45-.25.743l-1.39.528c-.236.4-.58.908-.809,1.4a4.6,4.6,0,0,1-2.483,1.857c-.178.425-.34.812-.547,1.309l-.644-.338-2,.523.222.6c-.7.315-1.38.685-2.108.943a14.975,14.975,0,0,1-4.422.89,11.644,11.644,0,0,0-1.282.2c.679-.8.662-.879-.21-.983l2.769-1.114c-.212.471-.425.942-.723,1.6a7.891,7.891,0,0,0,2.5-2.125,2.179,2.179,0,0,0-1.646.38,5.067,5.067,0,0,0-1.715.418c-.166.07-.346.123-.887.314l.909-.981,1.508-.339,1-1.021L187,48.9l-.525.609-.45-.254-.977.237c-.02-.149-.04-.305-.066-.513l-.9.391c-.029-.226-.055-.431-.092-.709l-.945.506-.8-.01-.177.288-1.765.414-.72,1-1.336.322-.2.444-.9.347c-.03.241-.058.445-.081.626l-.983.589c-.712.2-1.392.039-2.186.682-.908-.173-1.845-.355-2.789-.53a1.551,1.551,0,0,0-.494-.033c-1.5.2-2.722-.028-4.288.264a2.508,2.508,0,0,1-.807.012,19.187,19.187,0,0,0-5.252.134.626.626,0,0,1-.145.018,22,22,0,0,0-4.209-.07c-1.9-.036-3.857,0-5.773-.017-.991-.009-1.945-.062-2.914-.1-.04,0-.057-.036-.1-.032-.737.065-1.508.178-2.2.19-.663.011-1.225-.106-1.877-.113a5.256,5.256,0,0,0-1,.288l.509.481c-1.137.186-1.347-.14-1.351-.671l-2.022.712-.628-.194-.46.753c-.7.815-2.363,1.021-2.9,1.711l2,.961a4.515,4.515,0,0,1-.9.126,5.074,5.074,0,0,0-2.787.5c-.8.29-1.6.565-2.483.877l.526.315a2.525,2.525,0,0,1-2.227.457l-1.41.69a25.546,25.546,0,0,0-5.212.334c-1.841.218-3.523.12-5.446.164l-.68-.448-1.176.538c-.81.137-1.641-.078-1.854-.525-1.738.751-2.923.419-4.331.482-1.526.067-3.072.164-4.648.25-.146.594,1.033.525.754,1.189l-1.385-.435c-1.734,1.335-3.085,1.029-4.367.943-.03-.19-.059-.37-.1-.655l-.837.569c-.51.126-.919.25-1.312.32-.365.065-.714.073-1.111.111.161-.328.286-.58.409-.833l-.2-.008a2.376,2.376,0,0,1-.551.419,5.7,5.7,0,0,1-2.159.666c-1.293-.014-3.006.612-4.114.288.573-.427.573-.427,1.72-.638.026-.144.052-.285.091-.492a13.954,13.954,0,0,0-3.067,1.018c-.228-.09-1.261.285-1.037-.279l.572-.113.757-.771-.634-.1a5.85,5.85,0,0,0-2.036,1.72l-.934-.479a3.522,3.522,0,0,1-2.5.076l-1.971.326c-.051-.375-.086-.64-.129-.964l-1.26.253c.078.21.136.367.193.522-.682.326-1.884.155-2.088-.287a2.739,2.739,0,0,0-.421.095c-.187.073-.359.175-.643.316-1.945-.167-4.447.151-6.259-.4l-.692.21-.31-.039,1.014-.571-.177-.114-1.335.173c.095-.339.195-.7.314-1.122l-.9.1-.816.7c0-.279.005-.421.008-.559l.87-.411c-.406-.392-1.236.3-1.9.2l-.2-.538-.989.288c.038-.229.074-.445.131-.786l-1.793.7-.14-.544c-2.437.669-3.685-.277-6.068.21a14.05,14.05,0,0,0-5.069-.319c-1.263.095-2.537.146-3.231-.4l-.374.413-1.365.052L48,60.162l-2.657.148-.311.852-1.992.181-.892-.966-1.614.96L38.5,60.942l-.609.141,1.221-1.634-2.042.623.68-.84-1.029.273c-.419-.437-.5-.436-1.515.043-.2-.226-.41-.451-.614-.678.2-.475.706-.673,1.5-.74-.038.252-.073.48-.106.687,1.2.248,1.6.2,3.93-.431.075-.155.153-.318.245-.511l-.513-.067-1.525.977c.024-.463.039-.768.056-1.1l1.268-.36.108-.173-1.8-.055L36,57.718l-.083-.107.829-.519-.59-.32L33.406,58.45c-.415-.341.189-.765.49-1.119l1.377-.385c.026-.067.051-.136.075-.2l-4.383-.074c-.032.218-.055.367-.078.516l-.7.216q-.089-.24-.177-.479l.476-.392q-.023-.059-.044-.118c-.488-.061-.488-.061-.973.458l-1.822.79c.028-.183.133-.375.054-.494s-.338-.17-.679-.322c-.128.31-.183.446-.283.69l-2.739.965c.154-.457.253-.752.384-1.139l-.338-.273-1.25.332-1.876-1.715.634-.96c.554.179.71.628,1.786.04l-1.378-.553,2.1-.8-1.131-.391.189-.962a3.971,3.971,0,0,1-3.648-.119l1.081-1.469a6.106,6.106,0,0,1-2.518.795c-.071-.195-.145-.394-.237-.643l-2.057.939c-.049-.132-.1-.259-.162-.438l-.871.154.38-.512-.673-.122.365-.6c-.7-.013-1.764.318-1.916-.258l.644-.716-.937.223c.016-.2.036-.427.06-.731l1.99-.833.131-.579-1.384.587c.091-.124.117-.221.2-.26.3-.139.623-.251.923-.388.253-.117.486-.254.767-.4.226.089.4.158.582.227.742-.637.715-.61,1.7-.538A9.168,9.168,0,0,0,19,46.213l1.364-.767L19.6,44.094l-1.052.035.994-.572-.2-.1-.928.16c-.607-.235.206-.677.626-1.089l-3.129.406c.088-.482-.776-.827-2.17-.795-.128-.344-.278-.752-.448-1.208l2.633-.716-1.768-1.145-1.208.584-.416-.269,1.165-.266.5-.615-2.3.448c.026-.044.122-.2.209-.347s.149-.279.23-.43c.789-.33,1.141-.284.945.256l1.442-.363c.205-.3.407-.6.647-.951l-.765-.051c.042-.445.078-.832.111-1.179l-1.327-.229,1.581-.684.884-.825-1.1-.41c-.046.313-.069.469-.09.616l-2.094.675c.417-.568,2.085-.8,1.932-1.607l-1.238.678-.99.086,1.817-.8-.483-.418.616-.387-.379-.251.868-1.06-1.41-.615a3.681,3.681,0,0,1-2.416,1.422Zm13,10.455c-.89.253-.822.565-.821.954l-2.836,1.248c1.716.065,2.632-.995,3.876-1.31.1-.32.176-.587.257-.855L26.433,43l1.084-.741c-.266.282-.531.565-.747.793a5.1,5.1,0,0,1,1.292-.042,12.449,12.449,0,0,0,2.2.06,4.7,4.7,0,0,0,1-.291c-.147-.111-.2-.213-.275-.2-1.648.338-2.22-.309-3.369-.423l-1.036-.1-1.082.382c-.3-.287-.849-.232-1.556.088m3.39,9.848.375-.419.944-.277-.491-.386-1.262.276c0-.034.007-.068.011-.1l.6-.211c.034-.047.07-.094.1-.14l-1.479.166c-.313.475-1.912.2-2.4,1.158l1.3-.248.678.7-.663.425-.375,1.154A2.335,2.335,0,0,0,26.5,53.3c1.326-.619,1.227-.4.824-.918m31-42.6.593.341.9-.552,1.746-.105-.1.192,1.265-.151.531.154.159-.428.174-.044c0,.232-.009.463-.014.774l1.834-.647-.193.494,2.126.178c.106-.131.244-.3.383-.477-.632-.277-.64-.877-1.978-.821-1.023.042-1.688-.415-2.95.228-.475-.014-.906,0-1.272-.044a10.742,10.742,0,0,0-2.569.29l-2.9-.08-.721.745.6.413.426-.12.682.2c.4-.379.4-.012.677-.075l.6-.46m53.336-5.516c.059.159.117.318.17.458l1.072-.079-.859.581.135.117,2.373-.694-1.3.867,2.922-.689c.023-.191.045-.376.068-.559,1.059-.649,1.059-.649,1.213-1.084l-2.936.961-.078-.114,1.513-.926c.007-.3.013-.554.02-.845l-1.945.547c.013-.091.022-.165.033-.246l2.245-.575c.016-.07.034-.139.05-.208l-2.318.334-1.593,1-.722-.672-2.191.391-.423-.668c-.48.5-.795.831-1.078,1.129.1.262.183.5.287.777l1.44-.842.15.065-.371.4.71-.069a26.141,26.141,0,0,0-3.349,1.714l2.5-.252.346.4,1.726-1.158.181-.067M23.184,34.557l-.679.167-2.36-.735-.564.4-2.689-.2-2.007,1.08.134.362,1.724-.225-1.721.872.717.538c.936-.835,2.162-.683,3.146-1.277-.053.151-.112.25-.085.251,1.161.029,2.631-.631,3.757-.51a1.4,1.4,0,0,0,.3-.073l.324-.647M177.546,13.4a10.112,10.112,0,0,1-1.746.329,26.762,26.762,0,0,0-5,.087c-.26-.362-.677.076-1.15.167.874.414,5.039.466,7.353.139a2.049,2.049,0,0,0,.338-.146l.2-.576M35.948,10.75l-1.979.7c.024-.578-.413-.672-1.333-.368l-.85.893.493.2.917-.353c1.337-.245,1.631.469,2.983-.065.344-.479.617-.907-.231-1.005M138.606,4.685,139.8,4.6c.675-.519,1.843-.8,2.269-1.5l-.746-.357-.88.823-.706-.42c-.846.465-1.989.759-2.065,1.43l1.9-.815.186.1-1.154.828M44.6,57.4c-.763.562-2.363.81-2.244,1.592l.861-.2c-.01.111-.018.213-.023.263l-1.624.8L43.7,59.6c.149-.434.278-.809.386-1.12l1.628-.91-1.041.151L44.6,57.4M57.987,5.6c-1.521.273-2.873.491-4.238.772-.468.1-1.191-.01-1.485.615.291-.03.559-.051.832-.084,1.923-.235,4.046-.942,5.826-.834a2.006,2.006,0,0,0,.379-.13c0-.114,0-.231,0-.229L57.987,5.6m45.368-4.14L103.165.95l-1.33.519.462.712.935-.329.21.3-1.2.547,1.434-.124.957-.647c.05-.485-.128-.79-1.277-.469m-52.108,5.1-2.97.391c-.017.307-.031.553-.046.839l1.589.095,1.428-1.325M30.417,52.944c.233-.33.522-.741.863-1.223l-.882.052-1.1.74-1.217.09c-.106.282-.187.5-.26.69l2.595-.349m112.716-46.4.261.1,2.6-.916c-.038-.146-.079-.3-.113-.432l1.419-.615a9.231,9.231,0,0,0-3.511.97c.3.263.2.564-.657.889M70.545,8.905a7.766,7.766,0,0,0-2.247.889,21.59,21.59,0,0,0,2.795-.27c.917-.2,1.33.366,2.689-.306-1.052.056-1.393-.421-2.541-.068l-.7-.245M93.526,5.1c.4-.355.773-.684,1.254-1.109l-.631-.407-.741.845-2.418.562c-.021.049-.042.1-.064.148l1.243-.026.377.332.979-.345m54.867.553.04.106a7.249,7.249,0,0,1,1.526-.483,8.212,8.212,0,0,0,1.986-.6l-3.674.081c-1.1.541-1.1.541-.864.911l1.672-.589.086.083-.773.485m-59.726.121,1.9-.847.231-.737-1.832.389-1.018.734.719.46m35.837-1.9.35-.84c-.6.322-1,.565-1.437.766s-.944.373-1.463.575c.064.126.128.254.167.334.608-.081,1.117-.16,1.611-.211a2.366,2.366,0,0,0,1.529-.669l-.757.045M63.369,5.683l.671.034-.414.529.257.042,1.339-.9,1.213.03,1.2-.728L63.6,5.246c-.086.165-.159.3-.229.438m142.654,29.16-2.485.676.526.271L202.2,37.1a4.786,4.786,0,0,0,2.8-1.541l1.171-.32c-.055-.15-.088-.238-.145-.393M142.435,4.39l2.172-.062-1.018-.5.782-.732c-1-.386-1.4.438-2.045.652.045.263.083.484.109.641M90.365,60.963l-1.651,1.516.959.466c.981-.8.7-1.288.692-1.981m8.19-55.916L97.78,4.66l1.7-.693c-.532-.458-1.413.418-1.974.276l-.916,1.038c.628-.092.89.45,1.969-.234M151.949,4.1l-.365.31.789-.086,1.74-.976a7.107,7.107,0,0,0-3.26.8c-.01.06-.019.12-.029.179l1.126-.231m1.825,1.505,1.091.261,1-.47-.4-.566-1.13.2-.557.574M38.489,11.017c-1.677.221-.009-1.007-1.086-1.127l-.832,1.8c.708-.257,1.23.005,1.918-.669m80.286-6.584-.623-.5-1.614,1.061.48.007c.063.172.108.294.193.524l1.564-1.089" transform="translate(0.001)" fill="#c41e3a"/><path d="M14.265,29.557l-.581.335-.269-.631L9.937,30.514l-.639.225L10.46,29.7l-.11-.193,2.871-1.229c-.061.43-.1.7-.148,1.035l.745-.33.446.57" transform="translate(-2.258 -6.871)" fill="#c41e3a"/><path d="M324.794,16.115c1.127,0,.744.581,1,.855l-2.284,1.307-.909-.039.2-.526,1.412-.662.6-.959Z" transform="translate(-110.441 -3.91)" fill="#c41e3a"/><path d="M108.2,86.464c.022.231.041.423.062.647l2.731-.433c-1.653.788-3.095.578-4.705.927l.535-.35-.316-.743,1.693-.048" transform="translate(-36.397 -21.006)" fill="#c41e3a"/><path d="M2.675,32.975l2.307-.84.266.432c-1.5.49-2.454,1.485-4.255,1.647l-.138-.166,1.581-.553.239-.519" transform="translate(-0.207 -7.808)" fill="#c41e3a"/><path d="M47.36,76.112l-1.679.235-1.722.965-.258-.058a5.948,5.948,0,0,1,.955-.732,5.942,5.942,0,0,1,1.377-.48c.653-.146,1.3-.214,1.983-.321l.3.507-1.737.649.781-.766" transform="translate(-10.616 -18.396)" fill="#c41e3a"/><path d="M22.786,21.045c-1.187.284-1-.208-1.435-.465,1.431-.374,1.692-1.48,3.6-1.539l-2.42,1.512.22.518Z" transform="translate(-5.186 -4.626)" fill="#c41e3a"/><path d="M231.847,72.192l.681-.372a9.94,9.94,0,0,1,3.171,1.03c-1.738.369-1.389-.5-2.537-.39l-.807.356-.507-.624" transform="translate(-79.313 -17.449)" fill="#c41e3a"/><path d="M248.249,72.3l1.826.7-2.055.338-1.193-.8,1.422-.243" transform="translate(-84.377 -17.565)" fill="#c41e3a"/><path d="M324.583,16l-1.217.649c-.016-.374-.686-.2-1.746.206l.954-1.061c1.092-.229,1.323.17,1.982.23Z" transform="translate(-110.202 -3.821)" fill="#c41e3a"/><path d="M318.782,17.805l2.289-.333c-.02.232-.034.4-.05.578-1.35.5-1.5-.1-2.239-.245" transform="translate(-109.513 -4.245)" fill="#c41e3a"/><path d="M84.04,86.43l-.51.194-2.65.067.905-.67,2.254.41" transform="translate(-27.646 -20.899)" fill="#c41e3a"/><path d="M15.782,42.368c.143.427-.305.833-1.391,1.272l-.9-.267,2.343-1Z" transform="translate(-3.278 -10.294)" fill="#c41e3a"/><path d="M22.616,18.557l1.4-.6c0,.2-.005.31-.007.432l1.276-.062-1.622.5L22.535,18.7c-.045,0-.095,0-.142,0l.223-.143" transform="translate(-5.44 -4.362)" fill="#c41e3a"/><path d="M70.8,5.636c1.166.03,2.3-.932,3.706-1.015L71.865,5.713c-.351.034-.76.075-1.168.114a1.016,1.016,0,0,1-.145-.005l.244-.185" transform="translate(-24.138 -1.123)" fill="#c41e3a"/><path d="M168.129,5.436a4.041,4.041,0,0,0-2.055.273,1.215,1.215,0,0,1-.837-.033l3.744-1.149-.644.842-.208.067" transform="translate(-56.519 -1.1)" fill="#c41e3a"/><path d="M46.16,74.633l-.242.007.192-.125c.017.04.033.079.051.118" transform="translate(-11.155 -18.104)" fill="#c41e3a"/></g></svg>
