<svg xmlns="http://www.w3.org/2000/svg" width="534.469" height="90.857"><g transform="matrix(1, 0.017, -0.017, 1, 1.423, 0)"><path d="M20.147,42.2l-3-.04.82-.546-3.711-.547c-.555-.024-2.461,1-3.414.341l2.319-.428c.185-.794,4.8-.207,3.506-.222l-3.32-1.235-3.016.024c-.059-.087-.188-.2-.216-.321-.144-.593-.277-.588-2.633-.357-.576.057,9.124-.268,9-.534,1.043-.109-8.072-.044-7-.156-.106-.336-.2-.628-.324-1.02-1.109.244,8.05.291,6.816.563.007-.173.015-.409.031-.749-1.263.289,1.794.45.3.79.312-.492.583-.919.872-1.371l-3.082.04c1.747-.664-7.029-1.017-5.691-1.527.811.026,7.533-.059,8.282-.035.872-.544-8.719-.876-7.672-1.338.918-.4,2.369-.756,3.942-1.241,2.242-.055-2.2,0,.694-.069,1.114-.326,2.755-.728,1.918-1.186-1.124-.135-3.511.6-3.967.031a33.46,33.46,0,0,0,6.067-.748q.634-.219,1.266-.439c3.612-.171-4.9-.462-1.268-1.027,1.336-.087,2.734-.22,3.993-.25,1.2-.028,2.262.052,3.434.085.117-.047.362-.143.441-.176l2.836.153,1.094-.98,3.146-.36c2.247-1.081,5.618-1.593,9.915-2.292-2.541-.126-4.678-.141-6.362-.342-1.714-.2-2.976-.593-4.531-.921.5-.434,1-.864,1.679-1.457l-5.312-.361c-.053.43-.089.737-.13,1.075l-3.331.72.72.646-4.419,1.221-.786-.666,3.841-.576c-.031-.174-.071-.382-.114-.622l-5.357.785c-.025-.272-.043-.486-.068-.754l-5.035.573,6.387-1.388-.773-1.1-.068.034,2.828.45,3.523-.424c-.121-.457-.231-.867-.348-1.3l-1.718.358c1.091-.9,2.1-6.81,3.195-7.722.986-.062,2.221-2.14,3.491-2.218,2.661-.156,5.087-1.119,8.3-1.628l1.814.345L45.036,9.4l1.743-.476c2.547.2,5.536,2.8,9.07,2.2.333-.436.669-.87,1.162-1.513-2.547.667-3.9,1.481-6.446,1.406l5.383-1.742q-.079-.073-.163-.146l-2.409.285c.343-.539.708-1.113,1.085-1.708l4.386-.069c.21-.223.338-.359.535-.563l8.15-1.066-1.515.947c1.283-.137,2.392-.223,3.493-.382.835-.121,1.661-.368,2.5-.5a17.01,17.01,0,0,1,2.742-.3c.873.527,4.782-.347,4.98.512l1.441-.405c4.782-.321,28.768-.965,33.79-1.3-.183-.447-.31-.754-.439-1.066l-1.981.151c.013-.039.028-.076.043-.114l1.91-.261c.076-.19.142-.359.2-.5l4.144-.012.467-.524,4.109-.918-.191-.6,1.52-.091c-.172.25-.33.481-.617.906l2.463-.876,1.553.386,1.621-.855-2.21-.062L130-.6l2.22.377c2.232-.2,4.31,3.762,6.768,4.083-.867.358-1.852-4.271-3-3.8,1.463-.15,2.8,4.722,4.389,4.558l.873-.656,2.21-.153c-.518.346-.954.635-1.35.9l2.108.159-3.4.416.771.38c-.345.433-.632.79-1.147,1.437,2.919-1.139,5.793-.68,8.975-1.761l-3.894.348c-.132-.132-.277-.273-.477-.47l2.423-.094,4.257-1.66,3.936-.421,3.45.337.312-.222c2.435-.135,5.033-.375,7.26-.376,2.427,0,4.673.034,7.419-.146a54.955,54.955,0,0,1,7.079.37l3.982-.466.563.24,5.8-.715,2.76,1.325,1.831-.911,1.829.048,1.507-.6c3.409-.56,5.2-.248,6.309.274L211,1.77l-.112.185-1.491.275c-3.732.117-4.373.251-6.831,1.427l-1.383.141c-.923.367-1.649.633-2.257.909-.5.227-.857.467-1.279.7l-2.476.2c-.353.336-.607.577-1.056,1l-.659-.936a10.06,10.06,0,0,1,3.737-.949c.943-.072,1.641-.467,1.238-.749l-2.43.517-3.5-.214c-2.263.7-2.146,1.5-4.64,2.127l-.649-.352,1.578-.291c.038-.061.073-.12.112-.18l-3.33.08-6.3,1.727L176.719,7.1l2.879-.532,3.419-1.854-1.373.053c.812-.355,1.283-.562,1.785-.782l2.245.327c1.355-.518,2.562-.978,4.124-1.574-2.186.21-3.68.412-5,.465a8.239,8.239,0,0,0-4.021.676l.992.233L177.9,5.68c.16.152.317.3.553.532l-8,1.2c-.185.818,1.615.565,3.561.194.026.17.046.3.073.475l6.3-.336,3.1.887,1.248-.665,2.82.045,4.175-.867c-.19.283-.35.524-.553.825l4.289-.545,1.945.447,1.709-.99-2.232-.361,3.51-.858,1.223-.007c-.7.234-1.527.509-2.435.814l1.119.621c-.54.188-1.078.372-2.131.736l3.6-.3c1.161-.331,2.026-.55,2.765-.8s1.352-.519,2.019-.781l1.375.284-2.757.638,1.02.834,13.383-.341c-.391-.345-.609-.534-.84-.736l4.327-1.153c.508-.393.961-.744,1.42-1.1a13.412,13.412,0,0,0-5.3.644l-7.7-.265L206.826,5.8c-.279-.628-2.267.24-3.239.125l2.073-1.33-4.3.581a4.49,4.49,0,0,1,.873-.363,4.521,4.521,0,0,0,2.74-.89,12.414,12.414,0,0,1,4.1-1.507L207.6,3.473,216.81,1.4l11.625-.266-1.527.673,2.166.065-2.572.549c-.064.184-.132.377-.21.586l-2.612.413c-.1.45,3.145-.064.956.873l3.719-.521c.241-.356.441-.646.687-1.009l5.116.2,5.778-1.463.888.369-3.331.714,4.848-.19L248.034.872l3.589-.136c-.018.027-.038.054-.056.081l-3.44.4,1.765.475L248.4,2.13c1.481.426,2.816-.3,3.881-.575A26.642,26.642,0,0,0,255.627.212c.3.427.454.645.674.955,2.43-.65,4.469-.942,5.623-.411a10.1,10.1,0,0,1,5.005.171l2.778-.683L285.6.055l.976.783,4.081-.67L295.877,0l-.735.607a58.4,58.4,0,0,1,6.732-.445c4.011-.1,6.539.495,10.356.422L314.87.03,313,1.507,317.12,1.2l2-.81c.365-.037.738-.088,1.078-.107,5.141-.29,9.876-1.367,13.882-.915,1.44.162,3.825-.085,5.641-.063,3.161.039,6.2.151,9.324.215,1.156.024,2.4,0,3.709,0L350.3.51c2.527-.468,4.409-.814,6.917-1.277-.657.478-1.028.752-1.192.871L358,1.176l2.871-.757c.064-.176.114-.316.178-.5.353,0,.7-.031.943-.01a17.7,17.7,0,0,0,4.966.129c1.964-.243,2.74.1,2.04.809l3.219-.693c.054.027.107.055.163.081l-5.624,1.731,4.422-.631c-.193.33-.378.643-.561.955a12.776,12.776,0,0,0-4.31.327c-1.473.293-2.562-.393-4.424.473a1.736,1.736,0,0,0,.636.167c2.679-.141,5.383-.3,8.3-.469.107-.192.185-.326.259-.46,1.086.357,2.473-.4,3.6-.339.154-.241.243-.382.357-.566l4.244-.784,2.131.378c1.545-.056,4.181-.646,3.955.192,4.668-.35,6.281-.153,5.879.764,4.18-.532,7.729-2.253,8.231-1.317l3.465-.008c1.128.351,5.114-1.446,6.344-1.064,1.342.351,3.538.471,1.811,1.491,1.192.256,3.584.074,2.99.928l-3.057.793,1.456.439-1.747.216c-.254.239-.517.487-.858.81,1-.126,1.822-.186,2.572-.332,5.411-1.052,3.449-4.876,4.9-3.718l2.9.169,2.569-.8c3.318-.167,3.318-.167,3.853.226,2.354-.077,4.419-.218,6.2-.19,4.759.079,9.377.242,14.088.352C453.056.11,459.26.2,465.3.375c2.955.087,5.614.341,8.441.5,1.664.094,3.348.182,5.108.224,7.06.169,39.551.309,44.5,1.388a4.3,4.3,0,0,0,1.025.151c4.177-.009,8.008,9.192,10.152,10.06l2.141-.4c.031.024.063.048.092.072l-4,1.156,4.39-.363c-2.513.465-4.5-7.193-6.362-6.85-.449.4-.825.728-1.248,1.1-1.383.436-2.721,8.9-4.345,9.411a5.27,5.27,0,0,0,2.858-.381c.906-.275,2.075-.475,3.18-.72.106-.17.218-.348.35-.563l2.7-.261c.069.183.129.341.2.526l-2.144.315c.071.194.125.345.18.488l3.3-.352c-1.5.531-3.257.963-3.293,1.658,1.907-.409-9.63-.542-8-.89-.03-.212-.051-.363-.076-.514l.525-.079c.041.219.081.44.121.645-.726.206,11.91.143,11.426.28.124.375-10.339.672-8.211.4-.32.183-.616.35-1.152.656l5.471-.518,2.684.451-4.153,1.474.395.556,2.8-.17c-.086.147-.02.265-.224.346a35.172,35.172,0,0,1-6.407,1.526c-2.219.387,8.805.6,6.32,1.072l-3.425-.389,2.889-1.059-6.077.569,1.1-.838-1.679-.573c-3.239.653-.865,1.057-1.986,1.664l-3.227.528,2.113.779,3.272-.7c-3.473,1.368-2.59,2.007-.513,2.487l1.223-.107c.418.59.8,1.135,1.306,1.849l1.114-.619.72.157c-1.012.318-1.915.6-2.844.889.254.359.487.689.754,1.068l3.691-.342c1.187-.388,1.154-1.133,3.914-1.234.126.1.291.225.454.355-.7.148-1.238.264-2.085.443.89.112,1.568.2,2.369.3l-2.541.862c.071.044.144.086.218.129,1.636-.3-9.941-.378-8.194-.7-.545,2.007,5.584,3.271.728,4.308l-.631.928-2.182.165c-.132.066,12.948-.095,12.815-.028.867.172-11.464.566-10.621.745.9.193,7.491-.337,8.4-.144.839.178-11.578.6-10.622.731,1.273.175,2.6.336,4.048.43,2.6.17-.753.371,1.86.533,2.965.185,1.823.46,4.7.688,2.227.177,1.331.444,3.468.662,2.438.249,1.909.776,1.543,1.745-2.021.786-1.81,1.569-4.815,1.886a22.465,22.465,0,0,1-2.323.319c-2.413.139,5.363.08,2.705.219-.419.853-1.7,1.546-4.764,1.775-1.783.618-2.134,1.094-1.07,1.351,1.865.45,2.551,1.129,2.519,1.807l-6.3,2.92c-.243.024,12.258-.132,10.958,0,1.5.931-10.345,2.007-8.98,2.856l-1.771.17c-.122.243-.243.482-.34.672l1.656.431c-2.479.458,8.8.588,6.8.957l.687.557-3.29.521c-1.1.9,3.219.443,2.184,1.412l-2.356-.159c-1.583.254,0,7.457-1.857,7.755-.178.281-.378.591-.626.974l-3.48.692A25.9,25.9,0,0,0,523.609,68c-.9,1.008-3.262,1.782-6.215,2.436-.446.557-.85,1.066-1.369,1.717l-1.613-.444c-1.477.2-32.631-1.067-34.528-.807.224.317.386.545.555.785-1.74.413-3.455.9-5.276,1.236a68.292,68.292,0,0,1-11.07,1.167c-.954.018-2.09.168-3.209.263,1.7-1.055,1.657-1.153-.527-1.289l6.932-1.461c-.53.618-1.063,1.235-1.811,2.1a21.345,21.345,0,0,0,6.252-2.788,9.548,9.548,0,0,0-4.12.5,22.694,22.694,0,0,0-4.294.548c-.416.092-.865.162-2.22.412l2.276-1.287,3.775-.445,2.494-1.339-1.558-.151-1.314.8-1.128-.334-2.446.311c-.05-.2-.1-.4-.165-.672l-2.265.513c-.073-.3-.139-.565-.229-.93-.976.273-1.6.448-2.366.663l-1.991-.013-.442.378-4.419.543-1.8,1.317-3.345.422c-.167.189-.348.4-.512.582l-2.248.456c-.076.316-.145.584-.2.821l-2.461.773c-1.783.256-3.5-.948-5.49-.105-2.273-.227-4.619-.466-6.981-.7a7.338,7.338,0,0,0-1.236-.043c-3.762.262-6.814-.037-10.735.347a11.921,11.921,0,0,1-2.021.016,91.3,91.3,0,0,0-13.147.176,2.935,2.935,0,0,1-.363.024c-2.938-.382-7.032-.058-10.537-.092-4.749-.048-9.656,0-14.453-.023-2.481-.012-4.87-.081-7.295-.127-.1,0-.142-.047-.243-.042-1.844.085-3.775.233-5.515.249-1.661.015-3.067-.139-4.7-.148a23.086,23.086,0,0,0-2.5.377l1.274.632c-2.846.244-3.373-.184-3.383-.88l-5.063.934c-.3-.049-.876-1.138-1.591-1.254l-1.152.988c-1.758,1.07-5.968-1.66-7.309-.755,1.654.416-4.743.518-2.874.989-1.182.092-1.045-.346-1.375-.391-2.067-.277,2.438-2.989-.045-2.515-1.992.38-4,.741-6.215,1.15l1.316.413c-2.135.931-3.782.663-5.575.6l-3.529.9a121.3,121.3,0,0,0-13.046.438c-4.607.286-8.82.157-13.634.215l-1.7-.588-2.945.706c-2.029.18-4.107-.1-4.64-.688-4.35.985-7.316.55-10.842.633-3.82.088-7.691.214-11.637.328-.366.779,2.55-1.31,1.851-.44l-3.467-.571c-4.342,1.751-7.722,1.35-10.933,1.237-.074-.249-.149-.486-.263-.859l-2.095.746c-1.276.166-2.3.328-3.285.42-.915.085-1.786.1-2.782.146.4-.43.715-.761,1.023-1.092l-.49-.011a7.127,7.127,0,0,1-1.38.549,24.483,24.483,0,0,1-5.4.874c-3.237-.019-7.524.8-10.3.378,1.435-.56,1.435-.56,4.305-.837.066-.189.13-.373.228-.645-2.663.485-5.263.548-7.678,1.336-.57-.118-3.156.374-2.6-.366l1.433-.148,1.9-1.012-1.586-.134a16.064,16.064,0,0,0-5.1,2.256l-2.338-.629a16.422,16.422,0,0,1-6.262.1l-4.934.428c-.127-.492-.216-.839-.322-1.264l-3.155.332c.2.276.342.482.484.684-1.707.427-4.716.2-5.226-.376-.34.038-.721.057-1.055.124-.469.1-.9.229-1.61.415-4.868-.219-11.133.2-15.668-.529l-1.733.276-.776-.051,2.539-.749-.442-.15-3.343.227c.238-.445.487-.914.786-1.472l-2.257.132-2.044.925c.01-.366.013-.552.02-.733l2.177-.539c-1.017-.514-3.094.393-4.751.262-.107-.153-.282-.4-.5-.706l-2.475.378c.094-.3.185-.584.327-1.031l-4.489.913c-.1-.209-.175,2.538-.3,2.286-6.1.878-9.189,1.636-15.155,2.275-3.348-.559-7.743.387-12.672.581-3.163.124-6.351.192-8.089-.522-.307.179-.54.314-.936.542l-3.417.069,2.7-1.659c-2.179.064-23.514.455-25.962.526l-.778,1.117L88.3,80.8,86.07,79.533l-4.04,1.259-5.073-.517-1.524.185,3.057-2.144-5.113.817,1.7-1.1-2.575.358c-1.048-.573-1.263-.572-3.794.057-.512-.3-1.027-.592-1.537-.889.492-.623,1.768-.883,3.751-.971-.1.331-.183.63-.264.9,3,.326,4,.267,9.839-.565.188-.2.383-.417.614-.67l-1.284-.088-3.817,1.282c.059-.607.1-1.007.14-1.444l3.175-.472L79.6,75.3l-4.512-.072-4.408.814-.208-.14c.672-.221,1.349-.442,2.075-.68l-1.476-.42-6.876,2.2c-1.04-.447.472-1,1.227-1.468l3.447-.505c.064-.088.127-.178.188-.266l-10.971-.1c-.081.286-.139.482-.195.677l-1.742.283q-.223-.314-.444-.629l1.192-.514q-.057-.077-.109-.155a2.96,2.96,0,0,0-2.435.6c-1.4.318-12.957.809-14.725,1.21.071-.24.332-.493.135-.647a8.008,8.008,0,0,0-1.7-.422c-.32.407-.459.585-.708.906L30.5,77.245c.385-.6.634-.986.961-1.495l-.847-.358-3.13.436-4.7-2.249c.355-.282.89-.705,1.586-1.259,1.387.234,1.778.824,4.472.053l-3.45-.726c1.892-.376,13.549-.848,15.425-1.22l-2.831-.512.472-1.262a18.117,18.117,0,0,1-9.132-.156l2.707-1.927c-2.153.847-4.127.721-6.3,1.043-.178-.255-.363-.516-.594-.843L19.988,68c-.124-.174-.241-.34-.4-.574l-2.181.2.953-.671L16.67,66.8l.915-.791c-1.74-.017-4.416.417-4.8-.339l1.611-.939-2.346.292c.04-.265.089-.56.15-.959l4.98-1.092c.058-.134.17-.4.327-.76l-3.465.77c.228-.163.292-.29.5-.341.746-.183,1.558-.329,2.309-.508.634-.153,1.217-.334,1.92-.53.566.117,1.01.208,1.456.3,1.857-.836-8.374-.626-5.9-.532.921.036,2.238-.14,3.643-.238l3.416-1.006c-.659-.61-1.241-1.149-1.918-1.774l-2.635.046,2.489-.751-.5-.132-2.323.211c-1.52-.309.517-.888,1.568-1.428l-7.833.532c.22-.633,8.221-1.26,4.731-1.217-.32-.451-.695-.986-1.121-1.585l6.592-.939-4.426-1.5-3.024.766-1.042-.353,2.917-.349,1.246-.807-5.753.588c.066-.058.305-.257.523-.456.2-.184.373-.366.576-.564,1.974-.433,2.856-.372,2.366.336l3.61-.476c.513-.393,1.019-.784,1.619-1.247l-1.915-.068c.1-.584.2-1.091.279-1.547L14.1,47.1l3.959-.9,2.214-1.082-2.759-.537c-.116.41-.173.616-.226.808l-5.241.885c1.045-.745,5.22-1.049,4.835-2.108l-3.1.889-2.48.112,4.55-1.052-1.21-.548c.292-.1.9-.3,1.542-.507l-.948-.329,2.174-1.39-3.529-.806c-1.213,1.059,8.706,1.305,6.148,1.656ZM30.324,56.3c-2.227.332-2.059.741-2.055,1.251l-7.1,1.637c4.3.085,6.59-1.3,9.7-1.719.241-.42.441-.771.644-1.122l5.058.568c1.09-.39,12.064-.856,12.877-1.147-.665.37-1.329.741-1.87,1.041a24.246,24.246,0,0,1,3.234-.055c1.525.244,3.757,0,5.5.078a20.576,20.576,0,0,0,2.491-.381c-.368-.146-.5-.28-.688-.259-4.125.443-5.557-.405-8.434-.555l-2.593-.127c-.847.157-11.839.484-12.872.675-.753-.376-2.126-.3-3.9.115M48.973,69.043l.939-.549,2.364-.363-1.228-.506-3.158.362c.01-.045.016-.089.028-.134l1.5-.277c.086-.062.175-.123.262-.184l-3.7.217c-.782.624-4.786.263-6.012,1.519l3.252-.326,1.7.92-1.659.558c-.358.578-10.807,1.213-11.1,1.688,3-.247,13.863-1.1,14.754-1.721,3.32-.812,3.072-.526,2.064-1.2m96.919-56.208,1.486.447,2.255-.724,4.37-.138-.244.252,3.166-.2,1.329.2.4-.562.436-.058c-.012.3-.021.608-.035,1.015l4.591-.848c-.178.24-.378.507-.484.648l5.322.233c.266-.172.611-.4.959-.626-1.581-.363-1.6-1.151-4.952-1.077-2.56.056-4.224-.544-7.386.3-1.19-.019-2.268,0-3.184-.058a50.5,50.5,0,0,0-6.432.38l-7.269-.105-1.8.977,1.5.542,1.066-.158,1.707.256c1.014-.5,1.01-.016,1.7-.1l1.514-.6M279.411,5.6c.149.209.294.417.426.6l2.683-.1-2.149.763.338.153,5.941-.911-3.244,1.137,7.315-.9c.058-.25.114-.494.17-.733,2.651-.851,2.651-.851,3.037-1.422l-7.349,1.26-.195-.149,3.787-1.215c.018-.387.033-.727.051-1.108l-4.868.718c.033-.119.055-.216.083-.323l5.619-.755c.041-.091.084-.183.125-.273l-5.8.438-3.987,1.311L279.584,3.2l-5.486.512-1.06-.877c-1.2.659-1.989,1.09-2.7,1.481.241.344.459.651.718,1.02l3.6-1.1.375.085-.929.53,1.776-.09c-3.12.735-5.994,1.444-8.383,2.248l6.27-.331c.494.3.7.429.865.529l4.32-1.519.454-.088M38.6,45.663l-1.7.218L31,44.917l-1.413.526-6.732-.266-5.023,1.417c.111.158.213.3.335.475l4.315-.295-4.309,1.144,1.794.705c2.344-1.1,5.411-.9,7.876-1.675-.132.2-.281.328-.213.329,2.907.038,6.585-.827,9.406-.669a6.312,6.312,0,0,0,.758-.1c.234-.245.474-.494.812-.848M444.336,17.575c-1.748.181-3.328.458-4.371.432-3.982-.1-7.932-.2-12.511.114-.652-.475-1.7.1-2.879.219,2.189.543,12.616.611,18.408.182a8.2,8.2,0,0,0,.847-.192c.116-.172.253-.375.507-.756M70.469,9.434l-4.954.915c.059-.759-1.035-.882-3.336-.483L60.05,11.037l1.233.264,2.3-.463c3.348-.322,4.082.616,7.467-.085.86-.629,1.545-1.19-.578-1.319M346.84,5.145l2.986-.114c1.689-.68,4.614-1.054,5.68-1.972L353.64,2.59l-2.2,1.079-1.768-.551c-2.118.61-4.979,1-5.17,1.876l4.764-1.069.466.133c-.814.3-1.624.61-2.889,1.086M92.211,75.626c-1.91.737-5.916,1.063-5.618,2.089l2.154-.267c-.025.145-.046.279-.058.346l-4.066,1.048,5.352-.333c.373-.569.7-1.062.966-1.47l4.074-1.194-2.6.2c-.066-.138-.132-.277-.2-.417M145.04,7.348c-3.808.358-7.281-4.356-10.7-3.986-1.17.127-2.981-.013-3.718.806.73-.039,1.4-.067,2.083-.11,4.814-.309,10.218,3.764,14.674,3.906a8.544,8.544,0,0,0,.949-.171c0-.149,0-.3,0-.3l-3.288-.144M258.61,1.917l-.474-.67-3.33.68,1.157.934,2.341-.432.527.4-3.011.717,3.59-.163,2.4-.849c.125-.637-.32-1.037-3.2-.616m-130.532,1.7-7.435.513c-.043.4-.078.726-.116,1.1l3.977.124,3.574-1.738M56.712,69.782c.584-.433,1.306-.972,2.159-1.6l-2.209.069-2.75.97-3.046.118c-.266.369-.469.654-.65.906l6.5-.458m301.461-62.2.654.136,6.511-1.2c-.1-.192-.2-.392-.284-.566l3.553-.806c-3.105-.069-5.68.682-8.789,1.272.753.345.5.74-1.644,1.166m-181.7,4.1c-1.943.389-3.988.485-5.624,1.166,2.552-.117,4.73-.091,7-.355,2.295-.267,3.33.48,6.73-.4-2.633.073-3.488-.552-6.361-.089l-1.742-.321m57.529-4.99c1.009-.466,1.935-.9,3.14-1.455l-1.58-.534-1.854,1.108-6.052.737c-.053.065-.106.13-.16.195l3.112-.034.944.436,2.45-.453M371.34,6.418c.033.047.068.092.1.139a31.247,31.247,0,0,1,3.82-.634,35.738,35.738,0,0,0,4.972-.781l-9.2.106c-2.755.709-2.755.709-2.163,1.2l4.185-.773.216.109-1.935.637m-149.5,1.159L226.6,6.465c.167-.279.37-.618.579-.966l-4.586.51-2.549.963,1.8.6m89.713-2.5c.3-.382.555-.7.877-1.1-1.5.422-2.5.741-3.6,1.005-1.132.272-2.362.49-3.663.755.16.166.32.334.419.438,1.522-.106,2.8-.21,4.033-.277a9.177,9.177,0,0,0,3.827-.878l-1.9.059M158.514,7.455l1.679.045-1.037.694.642.056,3.353-1.178,3.037.04,2.995-.954-10.095.724c-.216.216-.4.4-.574.574M528.839,45.48c-2.174.31,9.139.354,6.992.66l1.316.356-4.675,1.715c3.26-.429-7.545-.835-6.2-1.8L529.2,46c-.137-.2-.221-.313-.363-.515M356.425,4.759l5.436-.081c-1.128-.29-1.821-.469-2.549-.654l1.958-.96c-2.5-.506-3.514.575-5.119.855.112.346.208.635.274.841M225.986,73.971c-1.694.814-2.881,1.384-4.134,1.988l2.4.611c2.455-1.047,1.745-1.689,1.732-2.6m20.608-67.35-1.94-.507L248.9,5.2c-1.332-.6-3.536.548-4.941.361l-2.293,1.362c1.573-.121,2.229.59,4.929-.307M380.241,4.384c-.223.1-.508.227-.915.407l1.974-.113,4.355-1.28c-2.681-.206-5.423.529-8.16,1.055-.025.078-.048.157-.073.234l2.818-.3m4.569,1.974,2.73.343,2.491-.617-1-.742-2.828.263-1.393.753M76.831,9.785c-4.2.29-.021-1.321-2.719-1.479l-2.083,2.357c1.773-.337,3.079.007,4.8-.878M297.213,5.816l-1.558-.66-4.041,1.392,1.2.009c.157.225.271.386.484.687l3.914-1.428" transform="translate(-7.458 0.767)" fill="#c41e3a"/><path d="M324.794,16.115c1.127,0,.744.581,1,.855l-2.284,1.307-.909-.039.2-.526,1.412-.662.6-.959Z" transform="translate(207.621 0.65)" fill="#c41e3a"/><path d="M108.2,86.464c.022.231.041.423.062.647l2.731-.433c-1.653.788-3.095.578-4.705.927l.535-.35-.316-.743,1.693-.048" transform="translate(63.422 -0.183)" fill="#c41e3a"/><path d="M47.36,76.112l-1.679.235-1.722.965-.258-.058a5.948,5.948,0,0,1,.955-.732,5.942,5.942,0,0,1,1.377-.48c.653-.146,1.3-.214,1.983-.321l.3.507-1.737.649.781-.766" transform="translate(-18.076 2.427)" fill="#c41e3a"/><path d="M22.786,21.045c-1.187.284-1-.208-1.435-.465,1.431-.374,1.692-1.48,3.6-1.539l-2.42,1.512.22.518Z" transform="translate(-12.646 0.623)" fill="#c41e3a"/><path d="M231.847,72.192l.681-.372a9.94,9.94,0,0,1,3.171,1.03c-1.738.369-1.389-.5-2.537-.39l-.807.356-.507-.624" transform="translate(146.561 3.374)" fill="#c41e3a"/><path d="M248.249,72.3l1.826.7-2.055.338-1.193-.8,1.422-.243" transform="translate(155.97 3.258)" fill="#c41e3a"/><path d="M324.583,16l-1.217.649c-.016-.374-.686-.2-1.746.206l.954-1.061c1.092-.229,1.323.17,1.982.23Z" transform="translate(207.86 -3.053)" fill="#c41e3a"/><path d="M318.782,17.805l2.289-.333c-.02.232-.034.4-.05.578-1.35.5-1.5-.1-2.239-.245" transform="translate(208.55 0.552)" fill="#c41e3a"/><path d="M84.04,86.43l-.51.194-2.65.067.905-.67,2.254.41" transform="translate(45.985 -0.076)" fill="#c41e3a"/><path d="M15.782,42.368c.143.427-.305.833-1.391,1.272l-.9-.267,2.343-1Z" transform="translate(-10.737 0.321)" fill="#c41e3a"/><path d="M22.616,18.557l1.4-.6c0,.2-.005.31-.007.432l1.276-.062-1.622.5L22.535,18.7c-.045,0-.095,0-.142,0l.223-.143" transform="translate(-12.899 0.552)" fill="#c41e3a"/><path d="M70.8,5.636c1.166.03,2.3-.932,3.706-1.015L71.865,5.713c-.351.034-.76.075-1.168.114a1.016,1.016,0,0,1-.145-.005l.244-.185" transform="translate(39.35 -0.355)" fill="#c41e3a"/><path d="M168.129,5.436a4.041,4.041,0,0,0-2.055.273,1.215,1.215,0,0,1-.837-.033l3.744-1.149-.644.842-.208.067" transform="translate(102.209 -0.332)" fill="#c41e3a"/><path d="M46.16,74.633l-.242.007.192-.125c.017.04.033.079.051.118" transform="translate(-18.614 2.719)" fill="#c41e3a"/></g></svg>
