<svg xmlns="http://www.w3.org/2000/svg" xmlns:xlink="http://www.w3.org/1999/xlink" width="79.867" height="95.679" viewBox="0 0 79.867 95.679">
  <defs>
    <clipPath id="clip-path">
      <rect id="Rectangle_1414" data-name="Rectangle 1414" width="79.867" height="95.679" transform="translate(0 0)" fill="none"/>
    </clipPath>
  </defs>
  <g id="Arrow" transform="translate(7.582 22.321)">
    <g id="Group_15782" data-name="Group 15782" transform="translate(-7.582 -22.32)" clip-path="url(#clip-path)">
      <path id="Path_17011" data-name="Path 17011" d="M77.378,46.842c.351-.16.022-.454.034-.548-.509.4.034.634-.034.548" fill="#fff"/>
      <path id="Path_17012" data-name="Path 17012" d="M72.37,50.832l.011-.2-.6.829Z" fill="#fff"/>
      <path id="Path_17013" data-name="Path 17013" d="M67.238,53.785c.842.338,1.8-1.172,2.841-1.48l.232.055.125-.737a18.715,18.715,0,0,1-3.2,2.162" fill="#fff"/>
      <path id="Path_17014" data-name="Path 17014" d="M63.733,54.027c.307.143-.472.548.681-.293a1.063,1.063,0,0,1-.151,0,6.008,6.008,0,0,1-.53.288" fill="#fff"/>
      <path id="Path_17015" data-name="Path 17015" d="M64.263,53.74c.53-.329-.47,0,0,0" fill="#fff"/>
      <path id="Path_17016" data-name="Path 17016" d="M61.848,55.317l.587-.625c-.23-.057-.882.277-.707.038-.661.539-.43.593.12.587" fill="#fff"/>
      <path id="Path_17017" data-name="Path 17017" d="M61.434,56.158l.316-.3c-.1-.022-.208.013-.316.3" fill="#fff"/>
      <path id="Path_17018" data-name="Path 17018" d="M62.422,55.211l-.671.643c.161.041.287.234.319-.276.041.22.094-.046.352-.367" fill="#fff"/>
      <path id="Path_17019" data-name="Path 17019" d="M62.918,55.049c.477-.1,1.041-.309.451.317,1.311-.87.86-1.189-.451-.317" fill="#fff"/>
      <path id="Path_17020" data-name="Path 17020" d="M67.346,54.576l.638-.126.342-.475c-.171.236-1.125.427-.98.6" fill="#fff"/>
      <path id="Path_17021" data-name="Path 17021" d="M57.232,57.556c.031.157.441.212.592.351l.438-.455c-.322.066-.882.278-1.03.1" fill="#fff"/>
      <path id="Path_17022" data-name="Path 17022" d="M57.824,57.906l-.656.68c.718-.38.784-.561.656-.68" fill="#fff"/>
      <path id="Path_17023" data-name="Path 17023" d="M61.7,56.918l1.017-1.22-1.262,1.37Z" fill="#fff"/>
      <path id="Path_17024" data-name="Path 17024" d="M54.221,59.272l.27-.562-.528.919Z" fill="#fff"/>
      <path id="Path_17025" data-name="Path 17025" d="M52.259,60.476c.184-.442-.7-.166-.439-.522a4.752,4.752,0,0,0-1.156,1.276,3.032,3.032,0,0,1,1.595-.754" fill="#fff"/>
      <path id="Path_17026" data-name="Path 17026" d="M50.13,61.916a5.492,5.492,0,0,0,.535-.687,2.8,2.8,0,0,0-.535.687" fill="#fff"/>
      <path id="Path_17027" data-name="Path 17027" d="M55.792,59.294a.987.987,0,0,0-.835-.019l.522.192.313-.173" fill="#fff"/>
      <path id="Path_17028" data-name="Path 17028" d="M55.5,59.472l-.018-.005-.68.365.7-.36" fill="#fff"/>
      <path id="Path_17029" data-name="Path 17029" d="M55.871,59.25l-.079.044c.051.019.076.02.079-.044" fill="#fff"/>
      <path id="Path_17030" data-name="Path 17030" d="M59.45,57.772c-.342.474-1.177,1.251-.063,1.029.185-.445-.452-.316.063-1.029" fill="#fff"/>
      <path id="Path_17031" data-name="Path 17031" d="M56.522,59.491l.884-.4c-.073-.089-.306-.145-.136-.379Z" fill="#fff"/>
      <path id="Path_17032" data-name="Path 17032" d="M56.181,59.845l.341-.354-.328.148Z" fill="#fff"/>
      <path id="Path_17033" data-name="Path 17033" d="M51.761,61.437a3.921,3.921,0,0,1-1.086.894,10.972,10.972,0,0,0,1.505-.721c0-.154.084-.482-.419-.173" fill="#fff"/>
      <path id="Path_17034" data-name="Path 17034" d="M53.6,60.515l-.068.067c.067,0,.112-.01.068-.067" fill="#fff"/>
      <path id="Path_17035" data-name="Path 17035" d="M46.286,64.861l.109.027-.02-.074Z" fill="#fff"/>
      <path id="Path_17036" data-name="Path 17036" d="M52.3,61.632a1.183,1.183,0,0,0,.7-.582,7.8,7.8,0,0,1-.822.559c0,.07.015.108.12.023" fill="#fff"/>
      <path id="Path_17037" data-name="Path 17037" d="M49.006,62.8a5.939,5.939,0,0,0,.739-.156c-.25-.011-.728.021-.739.156" fill="#fff"/>
      <path id="Path_17038" data-name="Path 17038" d="M53.347,60.549l.044-.047c-.163-.011-.126.019-.044.047" fill="#fff"/>
      <path id="Path_17039" data-name="Path 17039" d="M53.347,60.549a2.539,2.539,0,0,0-.345.5,4.345,4.345,0,0,0,.525-.468.63.63,0,0,1-.18-.033" fill="#fff"/>
      <path id="Path_17040" data-name="Path 17040" d="M46.328,68c-.135-.38.626-1.242,1.653-1.344.654-.72-.522-1.546-1.586-1.772.061.163.141.3-.567.981.4.02,2.084-.619,1.567.093-.991.808-.966.4-1.6.521.7.167-1.031,1.425-.431,1.916l.831-.775c.075.088-.183.444.135.38" fill="#fff"/>
      <path id="Path_17041" data-name="Path 17041" d="M47.988,64.015l.315-.239a4.1,4.1,0,0,1-1.443.213c-.468.494-.512.689-.485.825l1.7-.917Z" fill="#fff"/>
      <path id="Path_17042" data-name="Path 17042" d="M49.826,62.9c-.05.526-.773,1.156-.041,1.271.982-.6.519-.715,1.02-1.22-1.554,1.021.342-.475-.942-.015a7.113,7.113,0,0,1,.812-.6,9.559,9.559,0,0,1-.93.31l.05,0,.007,0,0,.006c.1.007.135.022.042.041a.16.16,0,0,1-.03.026.433.433,0,0,1,.009.183c-.51.191-.129-.054-.009-.183a.3.3,0,0,0-.012-.067h-.009L48.3,63.776a9.145,9.145,0,0,0,1.524-.881" fill="#fff"/>
      <path id="Path_17043" data-name="Path 17043" d="M58.991,60.1a.112.112,0,0,1-.1-.057c-.077.106-.1.16.1.057" fill="#fff"/>
      <path id="Path_17044" data-name="Path 17044" d="M58.2,60.257a.9.9,0,0,1,.5-.506c.4-.079.1.179.19.292.173-.232.649-.731-.176-.5l-.084.117c-.723.246-1.825.262-1.741.145a2.978,2.978,0,0,0,1.31.45" fill="#fff"/>
      <path id="Path_17045" data-name="Path 17045" d="M54.021,61.7l-1.236.957.87-.071-.147-.174c.807-.364.5-.508.513-.712" fill="#fff"/>
      <path id="Path_17046" data-name="Path 17046" d="M46.026,64.764l-.05-.5-.453,1Z" fill="#fff"/>
      <path id="Path_17047" data-name="Path 17047" d="M44.31,65.817l-.133-.379-.341.472Z" fill="#fff"/>
      <path id="Path_17048" data-name="Path 17048" d="M1.483,26.692l-.112-.455a2.152,2.152,0,0,0,.112.455" fill="#fff"/>
      <path id="Path_17049" data-name="Path 17049" d="M1.457,29.987l.194.081c-.107-.153-.187-.215-.194-.081" fill="#fff"/>
      <path id="Path_17050" data-name="Path 17050" d="M6.349,87.339c.37-.787.943-1.482.5-1l-.434.53c.078.067.03.227-.064.468" fill="#fff"/>
      <path id="Path_17051" data-name="Path 17051" d="M3.759,56.986c-.042.062-.088.129-.131.194l.414.448c-.085-.195-.183-.413-.283-.642" fill="#fff"/>
      <path id="Path_17052" data-name="Path 17052" d="M1.963,56.518l.28-.874a3.918,3.918,0,0,0-.28.874" fill="#fff"/>
      <path id="Path_17053" data-name="Path 17053" d="M1.023,6.138.582,4.758c0,1.54.224,1.06.441,1.38" fill="#fff"/>
      <path id="Path_17054" data-name="Path 17054" d="M26.537,76.264a6.1,6.1,0,0,0-1.367.486c.721-.129,1.39-.083,1.367-.486" fill="#fff"/>
      <path id="Path_17055" data-name="Path 17055" d="M6.087,27.989c-.079-.279-.167-.4-.264-.39.074.287.158.449.264.39" fill="#fff"/>
      <path id="Path_17056" data-name="Path 17056" d="M23.74,77.578c.109-.013.206-.043.313-.063a5.746,5.746,0,0,1,1.117-.765,1.964,1.964,0,0,0-1.43.828" fill="#fff"/>
      <path id="Path_17057" data-name="Path 17057" d="M58.843,34.384a1.4,1.4,0,0,1,.1.119c.042-.044-.014-.079-.1-.119" fill="#fff"/>
      <path id="Path_17058" data-name="Path 17058" d="M73.12,47.681a7.736,7.736,0,0,1-.693-.361,2.432,2.432,0,0,0,.693.361" fill="#fff"/>
      <path id="Path_17059" data-name="Path 17059" d="M37.2,69.7c.355-.238.035-.075,0,0" fill="#fff"/>
      <path id="Path_17060" data-name="Path 17060" d="M39.857,70.151a.277.277,0,0,0-.042.268.355.355,0,0,1,.042-.268" fill="#fff"/>
      <path id="Path_17061" data-name="Path 17061" d="M21.408,82.042l-.033.017c.153.01.126.007.033-.017" fill="#fff"/>
      <path id="Path_17062" data-name="Path 17062" d="M37.856,69.553a3.437,3.437,0,0,0-.537.161,3.472,3.472,0,0,0,.537-.161" fill="#fff"/>
      <path id="Path_17063" data-name="Path 17063" d="M37.679,69.418l.344-.15c.011-.089-.053-.1-.344.15" fill="#fff"/>
      <path id="Path_17064" data-name="Path 17064" d="M36.7,70.021a4.005,4.005,0,0,1,.62-.307c-.088.016-.13.014-.118-.01l-.5.317" fill="#fff"/>
      <path id="Path_17065" data-name="Path 17065" d="M27.98,17.906a.679.679,0,0,1,.059.081c.463.059.285-.011-.059-.081" fill="#fff"/>
      <path id="Path_17066" data-name="Path 17066" d="M1.844,79.73c0,.02.016.03.02.049,0-.02.012-.045.016-.064Z" fill="#fff"/>
      <path id="Path_17067" data-name="Path 17067" d="M1.521,78.2a1.439,1.439,0,0,1,.359,1.519l1.251-.507Z" fill="#fff"/>
      <path id="Path_17068" data-name="Path 17068" d="M1.358,18.8.968,19.88c-.642-1.3-.42-2.24-.968-1.229,1.358.152.138,4.185,1.5,4.335l-.285.71c.012-.2-.067-.236-.054-.437-.65,1.38.981,1.025.789,2.8-.1.62-.3,1.052-.463.629l.336,1.382c-.026.4-.262.3-.236-.1l.108,2.107-.039-.016a9.359,9.359,0,0,1,.682,1.314c-.2.535-.144-.268-.313-.131l.329,1.166c-.353.476-.694-.491-.643-1.3-1.356,1.089.341.968-.451,3.318l-.172-1.1c-.77.71-.491,1.57-.971,2.815.25-.3,1.21-2.493,1.548-1.227a2.2,2.2,0,0,0,.122,1.51c-.483.006-.364.673-.336,1.507l-.641-.056c.185.9.511.83.8,1.361A1.5,1.5,0,0,1,.629,40.7c-.1,1.61.794-1.112.915.794a8.569,8.569,0,0,0,.4,3.881c-.222.937-.392-.164-.575.172l.51.831c-.012.2-.168.138-.248.1.2.7.64.058.813,1.159.7.3-1.029,2.259-.229,3.621-.182.336-.392-.162-.64-.059a13.088,13.088,0,0,0,1.088,3.136l-.42,1.307c.48-.96,1.049.268,1.516,1.342a9.128,9.128,0,0,0,.532-.827l.343,1.715c-.105.208-.325.035-.592-.246.053.117.105.228.153.314-.236.614-.605.3-.963-.144l.395-.618c-.388-.424-.819-.82-1.194-.732a1.565,1.565,0,0,1,.174.563c-.106-.111-.2-.182-.264-.131s.074.238.237.518l-.713.39.283.1L1.7,60.127c.718,1.606,1.775,3,2.069,5.551-.523-.632-.854-.136-1.474-.17.656-.7-.278-1.974-.145-3.3-.069.689-.365.538-.467.362l.6,2.356c-.507-.053-.38.5-.589,1.116,1-.466.667,1.756.974,2.714-.336.06-.68-.17-.6-1.34-.755,1.291,1.176,1.668.535,2.934-.008-.285.043-.439-.128-.552.3.667.062,2.3-.23,1.914l-.007-.285c-.119,1.9-.008,5.771.843,6.054a4.764,4.764,0,0,1-1.2-.363L4.747,80.5c-.73-.3-2.469.846-2.883-.726A3.556,3.556,0,0,0,1.9,81.741c.1-.308,1.056-.768,1.123-.347a9.1,9.1,0,0,0-1.128,2.225c.156-.461,1.3.051,1.265.781-.171-.114-1.13.06-1.25-.206a20.774,20.774,0,0,1,1.125,1.942c-.2-.528-.953-.035-1.272.7.221-.354-.02,2.417.091,3.1l.262-1.319c-.086,1.566.31,1.993.719,2.166.409.2.832.161.8,1.259a4.971,4.971,0,0,0-1.566,3.165c.592-.675,1.892-2.225,2.957-3.62,1.1-1.415,1.891-2.634,2.388-3.177a1.835,1.835,0,0,0,.173.28q.438-.47.759-.871A8.079,8.079,0,0,1,6.83,90.724a30.905,30.905,0,0,1-3.557,3.948c.82-.172.01.444,1.606-.513.45.1-1.126,1.191-1.66,1.52l3.969-2.061c-.07-.737,2.919-2.464,2.539-2.892q-1.7,1.385-3.857,3.032A6.659,6.659,0,0,1,7.4,91.5a9.313,9.313,0,0,1,2.6-2.195c.276-.005.348.3.368.626s-.145.757-.066.84a3.2,3.2,0,0,1,.384-.411,5.354,5.354,0,0,1,.481-.42,1.961,1.961,0,0,1,.835-.471l-.516.713c1.04-.308,1.045-1.633,2.464-1.711.4-.181,1.564.1,1.431-.285a4.2,4.2,0,0,1-2.185-3.03,16.908,16.908,0,0,1,2.978-.435c.925.16-.22,1.782.57,1.923-.069-.173.162-.568.27-.714.476-.094.119.588.942.016-.2-.673,1.788-.965.121-.735.749-.656.97-.4,1.948-1-.537-.2.142-1.813.892-2.471.037.179.34.264.484.3,1.765-.947,2.85-1.216,4.47-2.145.231.057,1.112-.22.926.226a2.212,2.212,0,0,1,.761-.865c1.26-.047-1.066.721.024.91-.135-.379,1.016-1.218,1.6-1.842-.524-.4-1.7.845-2.287,1.47-.425-.729.371-2.209,1.866-3.523,1.238-.957.855.137,1.028-.1,2.6-1.329,1.413-2.517,3.812-3.2,1.1-.015.572.9.95,1.133-.992.808-1.85.674-2.581,1.121l1.041-.307a2.964,2.964,0,0,1-1.4.991c.938.015,4.308-2.381,6.477-3.119.256-.355.759-.862.369-.886l-.578.421c-.783-.049.859-1.189-.022-.914a6.493,6.493,0,0,1,2.646-2.15l.525.4c-.115-.141-.943.123-1.176.473.348-.515,2.2-.311,2.328-1.312l-1.028.1c.675-.745,1.375-1.9,2.5-2.329-.772-.253-.2.2-1.29.007,1.076.4-2.655,1.49-1.172,1.7-1.163-.278-1.475.449-2.808.409.131.158.541.134-.374.548a1,1,0,0,1-.1.263l-.065.021.059-.007c-.022.048-.022.056.022,0a1.143,1.143,0,0,1,.6.012c-.2.65-1.581,1.432-1.926,1.909-.562.213.1-.325-.289-.35l-.516.712c-.293-.349-1.737.141-.659-.785l-1.1.611A4.5,4.5,0,0,0,31.9,72.7c-.562.212-1.049,1.18-.777.617l-1.568,1.226-.072-.088c-1.713.924-3.1,2.647-5.427,3.056a7.412,7.412,0,0,1-2.04,1.322l-.379-.23c-.66.537-2.381.926-2.491,1.457-1.309-.452-3.648,1.842-5.022,2.421l.206.468a17.162,17.162,0,0,0-2.661,1.9l.291.349a4.545,4.545,0,0,1-1.761,1l-1.147.452-.531.236a1.341,1.341,0,0,0-.247.127.174.174,0,0,1,.086-.183.269.269,0,0,1,.1-.027h.059l.121-.029a.524.524,0,0,1-.271-.027.827.827,0,0,0-.167-.021.439.439,0,0,0-.257.076,3.1,3.1,0,0,0-.514.551c-.376.469-1.084,1.17-1.136.774a1.3,1.3,0,0,1-.319.3,1.691,1.691,0,0,1,.106-.412c0,.016.01.018.024.01a.525.525,0,0,0,.006-.089l.238-.6a4.505,4.505,0,0,0-.24.564.609.609,0,0,0-.178-.39l.482-.642c-.006-.008-.005-.021-.014-.027.178-.347-.228.058-.59.57a.613.613,0,0,0-.29-.1c.389-.454.323-.541.264-.695s-.112-.358.3-.632c-.1,0-.171-.076-.231-.2a1.916,1.916,0,0,1-.088-.208,1.362,1.362,0,0,1-.091-.325c-.132-.661-.32-1.313-.746-1.455.112-.018.165-.175.172.113A2.984,2.984,0,0,0,5.055,82.2l.613-.253-.823-1.3c.373-.789.59-1.116,1.061-.333-.726-1.891-.273-1.534-.991-3.142l.4.078c-.016-.575-.547-1.494-.219-1.84.753-1.286.1-6.364.8-9.665-1.166.641.522-1.534-.382-1.665.276-.192.432-.652.671-.118-.27-1.684.438-2.531-.324-3.694.277-.193.4.36.568.189-.06-.135-.24-.535-.075-.71s.231.246.351.513c-.046-1.721-.9-1.9-1.693-2.02a1.543,1.543,0,0,0-.2-1.937c.261-.3.534-.81.627.259.039-.6.383-3.675-.257-3.736.163-.189.048-.841-.026-1a26.407,26.407,0,0,0,.035-2.8l-.1.368c-.771-.524-.172-1.1-.265-2.171l.079.031c.557-2.45-.266-1.058.369-3.475l-.48.132c-1.032-.226.608-2.142.214-3.545l-.274.506c-.353-.766,1.4-2.141,1.532-2.911.09-.168.144.265.209.5.61-2.014-.627-.261-.773-1.762.339-.277.862.357.925-.654.274-.5-1.1-2.93-.451-4.309-.261.3-.521.605-.718-.092-.093-1.068.987-2.889.163-3.855.072-.135.141-.187.206-.192-.213-.817-.353-2.655-.8-3.147,1.657-.755-.805-5.08.723-5.061l-.082-2.513.156.065a3.737,3.737,0,0,0-.632-2.738c.1-.372.247-.1.326-.07.078-.587.131-1.041.157-1.424.012-.192.018-.365.016-.527a1.2,1.2,0,0,0-.031-.25A16.09,16.09,0,0,0,5,10.353c.165.063.331.135.5.215a.87.87,0,0,1,.087-.723,2.343,2.343,0,0,0,.284-.874c.27.174.474.244.65.177a.518.518,0,0,1,.031.275c.169-.07.518.146.828.41a8.148,8.148,0,0,1,.8.809,2.084,2.084,0,0,0,.3.29,4.141,4.141,0,0,0,.745.4,1.448,1.448,0,0,0,1.372-.071l1.7.47c-1.845-1.227.677-.514.038-1.228.807.343,1.675,1.6.7,1.142l-.1-.162c-.811.618,2.213,1.663,1.841,2.187,3.792,2.135,7.2,4.707,10.713,6.78l-.041-.868,1.21.747c.238.333.148.746-.716.213.255.625,1.648.549,1.752.426,1.571,1.249-1.1.351-.58.671l.744.366-.119-.168a2.908,2.908,0,0,1,1.977.473c.595.512.118.588.367.764-.028.045.049.117.392.252l1.52.949-.331-.858c.83.15,1.443.869,1.054-.111.547,1.48,5.6,3.654,6.094,4.3a8.746,8.746,0,0,1,3.272,1.47c-.232-.273-.083-.937.893-.281-1.042.945,1.569,1.577,1.907,2.886-.413-.978,2.967,1.53,2.27.079.792.583-.2.464.285,1.108,2.277.716,4.277,2.859,6.857,4.146.127-.13-.156-.6.51-.522l.876,1.522c.535.21.961-.617,1.555.43-.052-.2-.131-.5.227-.361,4.456,3.561,10.331,5.153,14.486,9.411-.5-.683-.037-.453.482-.168-.292-.263.225-.372.279-.616l1.745,1.772c.709-.354,2.249,1.247,2.782.824l-.715-.281c1.248-.142-.394-2.144.213-2.9-1.4.169-1.953-2.58-4.167-2.455-.257-.374.457-.093.378-.4-.612.121-1.147-.089-1.966-.774l.154-.029c-2.611-1.392-3.506-2.376-6.248-4.27l-.023.533a3.2,3.2,0,0,1-.873-.885c-1.068.213,1.716,1.037.674,1.35-.338-1.308-4.352-2.529-4.358-3.8-.948-.554,0,.637-.943.082l-.1-.4-.431.192c-.592-.415-.721-.917-.619-1.148a3.257,3.257,0,0,0,.638.263c-.633-.769-2.339-1.214-2.559-1.472l.822.686c-2.734-1.259-5.707-3.425-8.516-4.35l.079.3c-2.121-.747-1.411-1.1-3.608-2.145l.1,0a4.086,4.086,0,0,1-1.713-.631c.662.08-.744-1.017.1-.866-2.3-.814-1.2-.291-2.988-.363l-.13-.5a2.668,2.668,0,0,1-1.861-.371c1.02.222-.387-.876.788-.684-1.8-1.974-3.681-1.179-4.1-2.79-1.525.305,1.621,1.594.945,1.458.306.564-1.219.182-1.859-.306-.692-.427-.539-1.829-2.32-2.834.174.106.225.046.4.152-.531-.61-1.475-.443-2.075-1.281-.766.275-1.037-.639-1.564-.03l1.715.779c-1.024-.352-2.35-.048-3.642-1.313a3.128,3.128,0,0,1,1.123.087c-.327-.459-.931-.36-1.271-.833.527-.61,2.059.99,3.347,1.037-.308-.565-2.152-.581-1.227-1.037-1.258.533-1.675-1.127-3.291-1.1l.316-.366a3.169,3.169,0,0,1-1.075-.289l.94-.168c-1.233-.106-1.641-1.479-2.715-1.768,1.956,1.112.151.748.8,1.524-2.721-.839-.761-1.874-3.567-3.23.4.151,1.226,1.036.546.9a5.2,5.2,0,0,1-1.239-1.328c-1.833-.943.03.582-.875.4-.318-.852-.994-.3-1.868-.593l.236-.421c-1.877-1.442-1.042.559-2.684-.821l1.108-.133-1.04-.4.471-.362a4.606,4.606,0,0,1-2.452-1.244c.067.43-.57.681-1.478.175-.235-.3-.092-.351-.053-.41.019-.029.012-.061-.082-.128-.047-.033-.115-.075-.213-.13l-.573-.314a4.217,4.217,0,0,1,.44-.008c.157.009.331.038.422.047a.82.82,0,0,1,.6.531c.136-.1.436-.1.572-.2a3.042,3.042,0,0,0-1.062-.8c-.683-.367-1.325-.663-1.715-.885a5.134,5.134,0,0,1,.8.592q-1.663-.573-3-.961c-.46-.475-.144-.46.221-.415-.6-.289-.971-.244-1.792-.67.085-.4-.141-1,1.22-.429L3.863,2.507C3.588,2.152,1.973.875,2.26.874A8.368,8.368,0,0,0,.685,0c.089,1.06.251,2.272.363,3.371A13.172,13.172,0,0,1,1.111,6.3a4.5,4.5,0,0,1,.2,1.1c-.044,1.126-.186,2.174-.25,3.366-.017.3-.028.6-.031.909v.469l.015.292a5.1,5.1,0,0,0,.234,1.18l-.7.945c.16,1.3.886-1.279,1.151.894.224,1.537-.6.573-.795,1.113a4.3,4.3,0,0,1,.5,3.508A6.878,6.878,0,0,1,1.358,18.8M1.67,34.894c-.1-.312-.414-.933-.129-1.161.553.355.288.63.129,1.161M2.831,59.355c-.159-.232-.08-.59.1-.995a2.164,2.164,0,0,1-.1.995M33.346,72.383a.137.137,0,0,0-.017.037c-.7.184-.446.126.017-.037m1.355-.541c.093-.13.05-.184-.037-.211-.026.156-.3.325-.64.48.152.058.358.04.677-.269M30.305,23l-.18-.25c.619.2.4.217.18.25" fill="#fff"/>
      <path id="Path_17069" data-name="Path 17069" d="M2.171,56.581a.462.462,0,0,1,.262-.133c-.081-.123-.175-.125-.262.133" fill="#fff"/>
      <path id="Path_17070" data-name="Path 17070" d="M1.105,6.38,1.111,6.3a.723.723,0,0,0-.088-.163Z" fill="#fff"/>
      <path id="Path_17071" data-name="Path 17071" d="M17.372,86.57a1.349,1.349,0,0,1-.621.071c.045.11.212.129.621-.071" fill="#fff"/>
      <path id="Path_17072" data-name="Path 17072" d="M40.919,67.305l-.739.571a1.685,1.685,0,0,1,.8-.279c-.074-.087-.309-.141-.062-.292" fill="#fff"/>
      <path id="Path_17073" data-name="Path 17073" d="M49.366,65.876c.087-.119.245-.149.331-.268l-.144-.175c-.492.3-.75.658-.187.443" fill="#fff"/>
      <path id="Path_17074" data-name="Path 17074" d="M42.462,68.265c.267.315.7-.1,1.224-.484a.7.7,0,0,1-.1.057c-.119-.586-.623-.079-1.125.427" fill="#fff"/>
      <path id="Path_17075" data-name="Path 17075" d="M43.809,67.694a3.259,3.259,0,0,1,.514-.309c-.048-.234-.234.081-.514.309" fill="#fff"/>
      <path id="Path_17076" data-name="Path 17076" d="M36.153,70.693c.318-.063-.092-.546.141-.49.039-.618-1.462,1.566-.141.49" fill="#fff"/>
      <path id="Path_17077" data-name="Path 17077" d="M43.585,69.161l-.452-.318-.112.532Z" fill="#fff"/>
      <path id="Path_17078" data-name="Path 17078" d="M38.97,71.4l.966-.4c-.055-.065.034-.173.155-.287-.561.3-1.216.568-1.121.684" fill="#fff"/>
      <path id="Path_17079" data-name="Path 17079" d="M40.091,70.717a2.212,2.212,0,0,0,.68-.489,4.841,4.841,0,0,0-.68.489" fill="#fff"/>
      <path id="Path_17080" data-name="Path 17080" d="M42.435,70l-.317.062-.652.334Z" fill="#fff"/>
      <path id="Path_17081" data-name="Path 17081" d="M29.282,76.882l-.907.689c-.014.207.305.144.636-.126.174-.239.5-.506.271-.563" fill="#fff"/>
      <path id="Path_17082" data-name="Path 17082" d="M32.928,76.362a1.027,1.027,0,0,1-.622-.081l.281.555Z" fill="#fff"/>
      <path id="Path_17083" data-name="Path 17083" d="M30.146,78.135c-.011.206-1.173,1.248.048.5.014-.205.922-.9-.048-.5" fill="#fff"/>
      <path id="Path_17084" data-name="Path 17084" d="M15.007,85.969l.245-.151-.545-.861Z" fill="#fff"/>
      <path id="Path_17085" data-name="Path 17085" d="M1.157,92.89c-.244,2.6.629-.28.324,2.1.241.114.249-1.921.457-1.7-.255-.876-.112-1.768-.781-.4" fill="#fff"/>
      <path id="Path_17086" data-name="Path 17086" d="M1.938,93.291a1.884,1.884,0,0,0,.154.391.947.947,0,0,0-.154-.391" fill="#fff"/>
      <path id="Path_17087" data-name="Path 17087" d="M75.579,49.733l.64.615-.311-.575Z" fill="#fff"/>
      <path id="Path_17088" data-name="Path 17088" d="M77.388,49.9l-.149.664.742-.25c-.183-.073-.538-.213-.593-.414" fill="#fff"/>
      <path id="Path_17089" data-name="Path 17089" d="M.363,37.286l.155.065c.17-.133.182-.334.208-.738Z" fill="#fff"/>
      <path id="Path_17090" data-name="Path 17090" d="M.848,25.607l-.013.2.586-.375Z" fill="#fff"/>
      <path id="Path_17091" data-name="Path 17091" d="M.1,15.805c-.025.4.106.871.081,1.272C.075,16.2.831,15.7.1,15.805" fill="#fff"/>
      <path id="Path_17092" data-name="Path 17092" d="M14.31,87.549c-.115.022.124.369.146.443.117-.172-.2-.536-.146-.443" fill="#fff"/>
      <path id="Path_17093" data-name="Path 17093" d="M15.451,85.824l.055.166.032-.5Z" fill="#fff"/>
      <path id="Path_17094" data-name="Path 17094" d="M16.955,85c-.489-.544-.488.4-.878.331l-.124-.119.16.57c.28-.261.516-.829.842-.782" fill="#fff"/>
      <path id="Path_17095" data-name="Path 17095" d="M18.506,85.9c-.184-.214.057-.3-.229.029a.682.682,0,0,1,.069.042.55.55,0,0,1,.16-.071" fill="#fff"/>
      <path id="Path_17096" data-name="Path 17096" d="M18.345,85.969c-.148.1.217.146,0,0" fill="#fff"/>
      <path id="Path_17097" data-name="Path 17097" d="M19,85.424l-.087.333c.123.119.326.048.316.19.147-.237.024-.355-.229-.523" fill="#fff"/>
      <path id="Path_17098" data-name="Path 17098" d="M18.941,84.859l-.057.152c.053.049.093.055.057-.152" fill="#fff"/>
      <path id="Path_17099" data-name="Path 17099" d="M18.763,85.332l.121-.321c-.086-.084-.2-.284-.066.128-.084-.195-.031.008-.055.193" fill="#fff"/>
      <path id="Path_17100" data-name="Path 17100" d="M18.581,85.309c-.192-.071-.391-.072-.3-.4-.35.307-.048.713.3.4" fill="#fff"/>
      <path id="Path_17101" data-name="Path 17101" d="M16.672,84.308l-.258-.1L16.4,84.5c.009-.141.394,0,.276-.188" fill="#fff"/>
      <path id="Path_17102" data-name="Path 17102" d="M20.473,85.024a4.953,4.953,0,0,0-.377-.476l-.069.238c.13.047.326.048.446.238" fill="#fff"/>
      <path id="Path_17103" data-name="Path 17103" d="M20.1,84.549l.1-.356c-.22.088-.2.217-.1.356" fill="#fff"/>
      <path id="Path_17104" data-name="Path 17104" d="M18.592,84.146l-.111.689.18-.736Z" fill="#fff"/>
      <path id="Path_17105" data-name="Path 17105" d="M21.361,84.552l.041.38-.027-.594Z" fill="#fff"/>
      <path id="Path_17106" data-name="Path 17106" d="M21.913,84.174c.045.308.372.356.357.57a1.155,1.155,0,0,0,.159-.692c-.068.182-.222.231-.516.122" fill="#fff"/>
      <path id="Path_17107" data-name="Path 17107" d="M22.474,83.652a1.812,1.812,0,0,0-.045.4.953.953,0,0,0,.045-.4" fill="#fff"/>
      <path id="Path_17108" data-name="Path 17108" d="M20.627,84.04c.062.071.214.261.392.278l-.3-.323-.094.045" fill="#fff"/>
      <path id="Path_17109" data-name="Path 17109" d="M20.711,83.985l.01.01c.1-.046.175-.076.207-.088-.027.011-.092.034-.217.078" fill="#fff"/>
      <path id="Path_17110" data-name="Path 17110" d="M20.6,84.051l.023-.011c-.03-.032-.042-.041-.023.011" fill="#fff"/>
      <path id="Path_17111" data-name="Path 17111" d="M19.383,84.148c.019-.284.176-.664-.274-.831.045.31.3.4.274.831" fill="#fff"/>
      <path id="Path_17112" data-name="Path 17112" d="M20.231,83.648l-.292.051c.06.1.184.215.175.356Z" fill="#fff"/>
      <path id="Path_17113" data-name="Path 17113" d="M20.285,83.462l-.053.186.108-.019Z" fill="#fff"/>
      <path id="Path_17114" data-name="Path 17114" d="M21.861,83.536a.5.5,0,0,1,.239-.4,1.007,1.007,0,0,0-.484.123c.046.128.1.372.245.275" fill="#fff"/>
      <path id="Path_17115" data-name="Path 17115" d="M21.284,83.722c0-.013.01-.022.011-.035-.032-.023-.049-.027-.011.035" fill="#fff"/>
      <path id="Path_17116" data-name="Path 17116" d="M23.384,82.425c-.019-.016-.039-.039-.058-.056.01.022.021.044.031.067Z" fill="#fff"/>
      <path id="Path_17117" data-name="Path 17117" d="M21.553,83.2c-.145-.014-.157.113-.153.261a.722.722,0,0,1,.215-.2c-.02-.058-.039-.094-.062-.057" fill="#fff"/>
      <path id="Path_17118" data-name="Path 17118" d="M22.735,83.278a1.453,1.453,0,0,0-.3-.1c.119.088.331.212.3.1" fill="#fff"/>
      <path id="Path_17119" data-name="Path 17119" d="M21.388,83.771a.183.183,0,0,1-.006.025c.078.06.052.024.006-.025" fill="#fff"/>
      <path id="Path_17120" data-name="Path 17120" d="M21.388,83.771a1.125,1.125,0,0,0,.012-.306.632.632,0,0,0-.1.222.766.766,0,0,1,.093.084" fill="#fff"/>
      <path id="Path_17121" data-name="Path 17121" d="M22.438,79.813c.175.357.076.83-.369.592-.09.39.7,1.443,1.257,1.965a.647.647,0,0,1-.027-.634c-.19-.141-.782-.143-.753-.57.221-.356.331-.023.588.073-.372-.357.057-.854-.366-1.449l-.155.38c-.061-.1-.047-.31-.175-.357" fill="#fff"/>
      <path id="Path_17122" data-name="Path 17122" d="M22.846,82.59l-.075.1c.146,0,.3.09.6.278a.732.732,0,0,0-.019-.53l-.516.224Z" fill="#fff"/>
      <path id="Path_17123" data-name="Path 17123" d="M22.326,82.939c-.132-.42.017-.713-.356-1.039-.277.188-.029.428-.112.689.418-.356-.018.285.44.308a.719.719,0,0,1-.2.242,1.378,1.378,0,0,1,.339.036l-.024-.017h0l0,0c-.047-.036-.07-.061-.032-.047,0,0,0-.01.006-.013a1.007,1.007,0,0,1-.058-.153c.18,0,.076.085.058.153.009.02.015.04.026.06l0,0,.356-.469c-.129,0-.248.083-.445.25" fill="#fff"/>
      <path id="Path_17124" data-name="Path 17124" d="M18.909,82.367a.253.253,0,0,1,.064.079c0-.063,0-.1-.064-.079" fill="#fff"/>
      <path id="Path_17125" data-name="Path 17125" d="M19.23,82.486c0,.072.05.238-.083.261-.159-.059-.1-.18-.174-.3-.011.137-.084.4.229.467l0-.07a1.47,1.47,0,0,1,.763.428,4.8,4.8,0,0,0-.739-.785" fill="#fff"/>
      <path id="Path_17126" data-name="Path 17126" d="M20.738,82.609l.29-.4-.382-.215.119.19c-.266.048-.083.262-.027.428" fill="#fff"/>
      <path id="Path_17127" data-name="Path 17127" d="M23.533,82.587l.17.427-.087-.688Z" fill="#fff"/>
      <path id="Path_17128" data-name="Path 17128" d="M24.017,82.256l.174.355.018-.283Z" fill="#fff"/>
      <path id="Path_17129" data-name="Path 17129" d="M50.4,61.937l.061-.162a.385.385,0,0,0-.061.162" fill="#fff"/>
      <path id="Path_17130" data-name="Path 17130" d="M49.549,62.378l.074.182c-.013-.115-.036-.194-.074-.182" fill="#fff"/>
      <path id="Path_17131" data-name="Path 17131" d="M36.516,75.241c.348.229.814.625.577.248l-.262-.35a.24.24,0,0,1-.315.1" fill="#fff"/>
      <path id="Path_17132" data-name="Path 17132" d="M43.831,68.2l-.113-.087c.031.151.06.293.088.425.006-.105.015-.218.025-.338" fill="#fff"/>
      <path id="Path_17133" data-name="Path 17133" d="M43.076,66.566l.358.121a.968.968,0,0,0-.358-.121" fill="#fff"/>
      <path id="Path_17134" data-name="Path 17134" d="M54.731,59l-.08-.46c-.21.118-.009.261.08.46" fill="#fff"/>
      <path id="Path_17135" data-name="Path 17135" d="M29.16,79.207a.8.8,0,0,0,.489.027c-.3-.12-.618-.368-.489-.027" fill="#fff"/>
      <path id="Path_17136" data-name="Path 17136" d="M52.309,66.142a.34.34,0,0,0-.03-.285.281.281,0,0,0,.03.285" fill="#fff"/>
      <path id="Path_17137" data-name="Path 17137" d="M30.067,79a1.081,1.081,0,0,0-.126-.046.544.544,0,0,1-.292.28c.219.09.423.108.418-.234" fill="#fff"/>
      <path id="Path_17138" data-name="Path 17138" d="M71.437,50.1a.458.458,0,0,1,.063.025c-.025-.054-.043-.047-.063-.025" fill="#fff"/>
      <path id="Path_17139" data-name="Path 17139" d="M78.383,51.24a.693.693,0,0,1-.181.14c.05.006.108-.03.181-.14" fill="#fff"/>
      <path id="Path_17140" data-name="Path 17140" d="M26.16,81.278c-.094.085.006.051,0,0" fill="#fff"/>
      <path id="Path_17141" data-name="Path 17141" d="M24.8,80.073a.43.43,0,0,0-.06-.208.565.565,0,0,1,.06.208" fill="#fff"/>
      <path id="Path_17142" data-name="Path 17142" d="M29.83,76.041l.01,0c-.073-.056-.06-.045-.01,0" fill="#fff"/>
      <path id="Path_17143" data-name="Path 17143" d="M25.9,81.2a.573.573,0,0,0,.2.036.593.593,0,0,0-.2-.036" fill="#fff"/>
      <path id="Path_17144" data-name="Path 17144" d="M26.023,81.364c-.047,0-.081.011-.115.016.021.07.056.1.115-.016" fill="#fff"/>
      <path id="Path_17145" data-name="Path 17145" d="M26.3,81.174a.367.367,0,0,1-.2.059c.036.014.056.029.058.045.028-.022.069-.055.139-.1" fill="#fff"/>
      <path id="Path_17146" data-name="Path 17146" d="M63.145,56.049c.014.008.026.011.043.022.021-.217-.012-.166-.043-.022" fill="#fff"/>
      <path id="Path_17147" data-name="Path 17147" d="M37.138,69.737c0,.006,0,.018,0,.024a.2.2,0,0,1,.023.006Z" fill="#fff"/>
      <path id="Path_17148" data-name="Path 17148" d="M37.369,69.239c.1.564-.029.558-.21.528l.737,1.021Z" fill="#fff"/>
      <path id="Path_17149" data-name="Path 17149" d="M52.334,60.714l-.463-.189c.018-.743.363-.683-.159-1.019.622,1.208-.993.712-.37,1.919l-.319-.149c.058-.018.028-.092.085-.109-.666-.373.218,1-.327,1.085-.207,0-.412-.115-.384-.315l-.186.488c-.115.034-.2-.186-.091-.22l-.481.392-.015-.037a4.726,4.726,0,0,1,0,.782c-.231-.1,0-.164-.119-.292l-.136.452c-.292-.241-.213-.676.016-.745-.936-1.031-.079.434-1.06.074l.195-.305c-.555-.573-.636-.207-1.185-.452.2.178,1.22.706,1.064,1.18-.14-.039-.283-.015-.323.32-.237-.421-.348-.224-.546-.082l-.3-.567c-.138.289.038.564.044.89-.286.087-.579-.317-.843-.648-.457.138.669.537.245.912-.459-.026-.569.336-.789.9-.345-.061-.149-.365-.323-.477l.038.563c-.058.017-.117-.129-.148-.2-.08.272.3.567.1.873.268.658-1.074-.58-1.029.311-.174-.112-.15-.365-.3-.567a3.523,3.523,0,0,0-.265,1.393l-.536-.182c.477.283.443.953.4,1.513.2.154.372.291.468.348l-.267.542c-.1-.063-.167-.279-.226-.552,0,.062-.007.124-.005.178-.27-.12-.369-.487-.432-.861.114.08.232.169.349.258a3.433,3.433,0,0,0-.4-1.147.371.371,0,0,1-.058.231.562.562,0,0,0-.1-.249c-.047-.051-.023.1-.015.28l-.446-.568.114.261-.786-.073c-.057.854.1,1.975-.4,2.591-.094-.546-.381-.765-.674-1.311.495.475.365-.522.764-.593-.208.038-.314-.242-.319-.356l-.307.853c-.233-.45-.311-.261-.569-.357.605.809-.12.83-.214,1.233-.178-.284-.288-.617.048-.711-.693-.477.15,1.263-.482.882.068-.047.132-.025.077-.19-.023.355-.551.378-.6.069l.068-.046c-.538.163-1.465.808-1.123,1.591-.058-.094-.436-.931-.491-1.1l.537,2.977c-.28-.681-1.417-2.038-1.22-2.621-.165-.028-.365-.055-.481.305.129.048.709.814.635.932a4.482,4.482,0,0,0-1.113-.672c.193.072.621,1.145.418,1.216a10.971,10.971,0,0,1-.556-1.121l.087,1.239a2.291,2.291,0,0,0-.7-1.065c.155.166-.408.2-.476.37l.322.119c-.6.14.257,1.667-.287,1.9-.051-.238-.542-1.335-.873-1.312.161.569.817,2.715.577,3.357l-.248-.239-.166.522A24.515,24.515,0,0,1,33.78,71.7c-.321-.12-.243-.31-.519-.121a.371.371,0,0,1,.007-.561l-.774.2c.357.571-.19.878.108,1.353l.4-1.019c.356.57.5,1.9-.034,2.068-.253-.166-.491-1.1-.611-1.286.05.236-.24.64-.364.521l.028-.428c-.39-.072,0,1.021-.635.64-.132.024-.753-.572-.578-.214a13.639,13.639,0,0,1,1.9,3.194,5.474,5.474,0,0,1-1.25-.578c-.475-.423-.423-1.4-.83-1.769a1.145,1.145,0,0,1,.085.5c-.192-.072-.228-.524-.441-.31.289.618-.542.237.161.57-.153.308-.332.024-.607.212a2.463,2.463,0,0,1,.315,1.763,1.469,1.469,0,0,0-.312-.4c-.537.229-.96.11-1.436.368-.124-.12-.449-.167-.495-.478-.009.144.041.381-.1.477-.569-.358.281-.262-.279-.761.174.356-.111.688-.2,1.019.362.5.537-.164.625-.5a2.694,2.694,0,0,1,.175,2.326c-.29.4-.435-.381-.445-.238-.81.282.088,1.637-.821,1.446-.5-.334-.531-.927-.774-1.236.221-.356.658.024.864-.116l-.391-.073c.014-.213.162-.45.354-.38-.438-.307-1.291.614-2.077.542-.014.214-.1.474.09.617l.144-.166c.376.286-.047.713.279.763-.093.4-.131.97-.59.945l-.363-.5c.1.153.4.195.405-.021-.009.317-.925-.434-.69.353l.445.239c-.092.4-.075,1.14-.471,1.139.432.452.036-.1.595.4-.615-.667.789-.4.04-1.04.62.6.55.092,1.179.545-.108-.172-.291-.282.011-.335a1.07,1.07,0,0,1-.031-.187.093.093,0,0,1,.024,0c-.009,0-.017-.01-.025-.013,0-.033-.006-.039-.009,0a.749.749,0,0,1-.279-.2c-.1-.476.309-.688.328-.973.2,0,.05.237.237.38l.029-.427c.238.381.762.429.536.857l.328-.161c.31.116.617.06.684-.193.2,0,.137-.646.178-.267l.364-.521.059.1c.52-.225.652-1.216,1.61-.821A.7.7,0,0,1,30.5,78.5l.243.309c.147-.237.829-.016.724-.421.738.786,1.144-.377,1.609-.423l-.233-.451a1.7,1.7,0,0,0,.67-.739l-.238-.38c.1-.475.865-.117,1.279-.4.053.167-.079.19-.208.142,1.015.6.742-1.256,1.574-.875.038-.208.151-.207.288-.155a.055.055,0,0,0-.018.038.15.15,0,0,0,.051-.023c.09.039.187.087.28.118a.9.9,0,0,0-.254-.133.9.9,0,0,0,.277-.358l.292.388c.008-.011.017-.015.025-.029.219.081,0-.259-.252-.536a1.028,1.028,0,0,0,.037-.353c.487.619.228-.426.778.216-.106-.4.531-.644.189-1.427.059.094.124.118.055.165.2,0,.4,0,.413-.284l.362.5-.071-.9a.9.9,0,0,1,.6.879c.126-.9.256-.455.314-1.309l.173.357c.138-.094.112-.688.36-.45.692.476,1.662-.808,2.839-.662-.73-.928.643.239.236-.568.183.213.375.284.356.569.3-.474.854.025.778-.805.184.215.1.4.229.523.005-.072.019-.285.143-.166s.05.237.041.379c.413-.283.044-1.05-.312-1.764.4.207.489.1.394-.447.2.185.465.352.239.585.171-.052,1.117-.185.821-.752.127.115.237-.077.241-.164a2.218,2.218,0,0,0,.725-.364L46.4,68.29c-.243-.747.195-.306.421-.537l.03.072c.892.141.139-.381,1.06-.167l-.267-.4c-.445-.933.839.229,1-.313l-.261-.168c.022-.417,1.225.923,1.483.927.086.055,0,.163-.025.253.807.248-.239-.585.07-.924.235.257.329.8.616.716.261.168.207-1.375.872-1-.2-.185-.407-.37-.326-.64.225-.233,1.212.454,1.056-.4a.459.459,0,0,1,.149.153c.1-.3.5-.683.408-1.143,1,1.34.894-1.421,1.633-.083l.6-.426.059.145c.456-.138.422-.539.386-.938.145.038.146.2.177.275.745-.062.772-.152.9-1.1l.293.405c-.005-.327,1.238.2,1.539-.63a.466.466,0,0,1,.045.23c.373-.874,2.239.325,1.6-1.385l.216-.63c-.628.19-.3-.731-.673-.864.168-.215.834.159.608.39l-.086-.055c.358.877.858-.1,1.155.472,1.079-.656,2.408-.8,3.459-1.339l-.475-.572.381-.165c.177.1.4.43.134.547.337.287.261-.545.191-.687.647-.021.219.855.382.784l.183-.164L65.3,58.88c.024-.355-.115-.64.211-.781.267.019.32.338.411.319.025.047.063.053.128-.046l.484-.2-.462-.4c.062-.361.441-.211-.087-.666.8.71,1.869-.626,2.21-.458a.941.941,0,0,1,.728-.821c-.144-.057-.512-.6-.176-.692.544,1.231.827.205,1.536.914-.526-.439.768-.609-.011-1.214.3-.043.26.429.6.6.337-.782,1.464-.429,2.108-.989-.074-.16-.327-.327-.3-.642l.813.553c.1-.155-.362-.961.2-.574-.11-.109-.274-.272-.2-.375,1.845-.048,2.577-2.24,4.811-1.642-.363-.188-.248-.29-.1-.385-.137-.016-.209-.38-.344-.578l.929.24c-.211-.639.63-.4.385-.99l-.136.207c-.108-.795-1.166-1.25-1.6-2.108.127.9-1.367-.677-1.245.646-.2-.113-.062-.319-.226-.482.081.425-.021.579-.377.568l-.02-.106c-.7.5-1.218.33-2.19.563l.292.379c-.211.046-.321-.063-.464-.12.142.744.528-.247.724.55-.709-.708-1.282.7-1.977-.169-.281.15.349.434.067.583l-.218-.217.116.372c-.213.046-.486-.226-.614-.441.058,0,.091-.132.128-.177-.406-.173-.609.475-.745.421l.356.011c-.624.665-1.74.842-2.18,1.777l.164.163c-.359.674-.568.036-1.089.546l0-.059a.551.551,0,0,1-.305.524c.028-.315-.539-.281-.477-.648-.391.726-.131.472-.127,1.421l-.274-.273c.027.37.1.531-.158.785.1-.418-.471-.384-.394-.908-1.039-.35-.558,1.248-1.431.377.2,1.061.835.187.776.471.3.216.13.806-.123.829-.217.094-.989-.953-1.5-.647.054-.024.019-.094.073-.118-.321-.121-.207.521-.652.282.169.616-.326.141.021.853l.386-.425c-.169.331.03,1.281-.633,1.135a1.405,1.405,0,0,1,.021-.567c-.244-.132-.175.274-.426.139-.347-.714.494-.472.488-1.16-.3-.215-.266.805-.539-.025.322,1.069-.578.163-.522,1.087l-.208-.428c-.019.1-.025.356-.133.4l-.115-.64c-.028.616-.771-.1-.9.305.563-.33.407.429.816.6-.394.947-1.008-.859-1.685-.221.074-.118.539.026.479.311a1.188,1.188,0,0,1-.7-.218c-.473.377.318.383.238.761-.459-.406-.142.348-.28.637l-.237-.42c-.745.061.332.966-.385.937l-.1-.71-.194.306-.21-.511c-.1.525-.251.485-.623.517.234.257.387.786.131.946-.319-.15-.123-.457-.462-.189-.063-.31-.155-.692.223-.4-.059-.146-.064-.31-.122-.456-.354-.179-.523.206-.655.286a.252.252,0,0,1,.2.016l-.215.886a.455.455,0,0,1-.18-.438c-.083.107-.051.343-.192.469-.149-.366-.356-.714-.218-1l-.3.667c-.117-.13-.492-.262-.495-.425-.4-.042-.331,1.055-.858,1a.349.349,0,0,1-.04.257c-.4.121-.949-.123-1.109.581l-.582-.48c-.253.323.756.593.334,1.131-.28.413-.437-.443-.669-.537-.021.417-.007,1.234-.643.934.054-.181.2-.142.282-.25M48.41,63.257c.03-.132.035-.493.231-.276.18.533-.019.341-.231.276m-5.631,4.466c-.018-.17.111-.152.3-.05-.055.076-.148.108-.3.05M27.154,80.275a.113.113,0,0,0,0-.025c.268.066.169.035,0,.025m-.468.021a.242.242,0,0,0,.08.187c-.034-.121.044-.175.154-.2-.087-.1-.177-.146-.234.01M65.88,58.241l-.133-.07c.093-.211.11-.076.133.07" fill="#fff"/>
      <path id="Path_17150" data-name="Path 17150" d="M43.161,66.756a1.133,1.133,0,0,1,.161.21.235.235,0,0,0-.161-.21" fill="#fff"/>
      <path id="Path_17151" data-name="Path 17151" d="M54.746,59.081c.006,0,.009,0,.015,0a.429.429,0,0,0-.03-.083Z" fill="#fff"/>
      <path id="Path_17152" data-name="Path 17152" d="M30.362,73.565a.534.534,0,0,1,.267.137.217.217,0,0,0-.267-.137" fill="#fff"/>
      <path id="Path_17153" data-name="Path 17153" d="M25.147,82.092l.173-.24c-.1.084-.193.014-.288-.021.06.1.184.214.115.261" fill="#fff"/>
      <path id="Path_17154" data-name="Path 17154" d="M21.66,80.618c0,.071-.07.046-.074.117l.118.191c.139-.094.153-.309-.044-.308" fill="#fff"/>
      <path id="Path_17155" data-name="Path 17155" d="M24.15,80.813c-.216-.344-.3-.142-.424.015a.056.056,0,0,1,.029-.016c.228.522.312.262.4,0" fill="#fff"/>
      <path id="Path_17156" data-name="Path 17156" d="M23.695,80.862a.276.276,0,0,1-.147.093c.092.209.085.008.147-.093" fill="#fff"/>
      <path id="Path_17157" data-name="Path 17157" d="M26.354,80.79c-.13-.047.2.48.078.361.165.5.215-.835-.078-.361" fill="#fff"/>
      <path id="Path_17158" data-name="Path 17158" d="M23.366,79.719l.3.405-.1-.405Z" fill="#fff"/>
      <path id="Path_17159" data-name="Path 17159" d="M24.841,79.318l-.33.024a.193.193,0,0,1,.013.189c.17-.075.4-.087.317-.213" fill="#fff"/>
      <path id="Path_17160" data-name="Path 17160" d="M24.524,79.531c-.088.039-.163.093-.17.19a.474.474,0,0,0,.17-.19" fill="#fff"/>
      <path id="Path_17161" data-name="Path 17161" d="M23.652,79.388l.128.048.2-.071Z" fill="#fff"/>
      <path id="Path_17162" data-name="Path 17162" d="M27.708,77.832l.216-.285c-.054-.166-.183-.215-.257-.095-.01.143-.084.26.041.38" fill="#fff"/>
      <path id="Path_17163" data-name="Path 17163" d="M26.174,77.115c.128.048.188.143.312.262l-.294-.547Z" fill="#fff"/>
      <path id="Path_17164" data-name="Path 17164" d="M26.938,76.524c-.055-.167.175-.664-.169-.428.054.166-.163.45.169.428" fill="#fff"/>
      <path id="Path_17165" data-name="Path 17165" d="M31.634,74.807l-.069.048.506.884Z" fill="#fff"/>
      <path id="Path_17166" data-name="Path 17166" d="M34.25,70.56c-.458-.024.225.594-.229.5.036.254.37.078.39.305.081-.337.258-.271-.161-.8" fill="#fff"/>
      <path id="Path_17167" data-name="Path 17167" d="M34.411,71.364a1.085,1.085,0,0,0-.029.193.508.508,0,0,0,.029-.193" fill="#fff"/>
      <path id="Path_17168" data-name="Path 17168" d="M79.449,51.273l.322.064-.308-.221Z" fill="#fff"/>
      <path id="Path_17169" data-name="Path 17169" d="M79.5,50.379l.367.538-.154-.585c-.036.052-.1.154-.213.047" fill="#fff"/>
      <path id="Path_17170" data-name="Path 17170" d="M47.168,62.453l.059.146a.218.218,0,0,0,.289.077Z" fill="#fff"/>
      <path id="Path_17171" data-name="Path 17171" d="M50.362,61.229l-.057.017.38.46Z" fill="#fff"/>
      <path id="Path_17172" data-name="Path 17172" d="M52.481,59.192c-.113.035-.169.215-.283.25.17-.215.666.374.283-.25" fill="#fff"/>
    </g>
  </g>
</svg>
