<svg xmlns="http://www.w3.org/2000/svg" xmlns:xlink="http://www.w3.org/1999/xlink" width="118.143" height="113.81" viewBox="0 0 118.143 113.81">
  <defs>
    <clipPath id="clip-path">
      <rect id="Rectangle_1433" data-name="Rectangle 1433" width="91.208" height="76.471" transform="translate(0)" fill="#f0c7ce"/>
    </clipPath>
  </defs>
  <g id="Shape" transform="matrix(0.839, 0.545, -0.545, 0.839, 41.649, 0)" clip-path="url(#clip-path)">
    <path id="Path_21112" data-name="Path 21112" d="M1.914,0C1.257.072.628.136.021.192L0,.431Z" transform="translate(59.725 4.285)" fill="#f0c7ce"/>
    <path id="Path_21113" data-name="Path 21113" d="M88.913,41.27c-.843-.361-1.69-.722-2.583-1.035-1.142-.416-2.306-.811-3.485-1.176-1.048-.335-2.148-.6-3.181-.934a9.021,9.021,0,0,1-1.6-.7,6.765,6.765,0,0,1-.994-.7c-.349-.259-.678-.535-1.026-.8-.323-.243-.662-.478-1-.712.06-.069.127-.124.187-.193.291-.013.586-.038.9-.049.119-.334.238-.68.345-.982,2.065-.849,2.686-1.595,3.1-3.754-.739.247-1.432.489-2.121.72a1.183,1.183,0,0,1-.081-.155c.36-.255.721-.512,1.112-.785-.311-.165-.577-.291-.929-.461.358-.146.592-.245.886-.369-.053-.149-.109-.3-.146-.416-1.126-.049-1.192.765-1.7,1.13-.6.059-1.122.116-1.531.156-.071-.427-.133-.8-.2-1.2.409-.272.8-.524,1.243-.812-.134-.106-.217-.163-.28-.215-.152.187-.242.295-.507.609-.14-.8-.24-1.417-.357-2.092-.047,0-.295.035-.5.049-.79-.639-1.088-1.4.446-2.681-.688.287-1.011.417-1.391.572-.257-.322-.489-.608-.781-.968.563-.161.979-.278,1.361-.388.514-.6-.41-1.177.965-1.707.215.25.417.487.625.725-.205.334-.409.656-.528.847.691-.067,1.476-.153,2.516-.268-.6.465-.945.733-1.273.994.52.239,1.03.465,1.354.621,1.049-.379,1.982-.73,2.915-1.025A7.6,7.6,0,0,0,83.4,21.8c.095-.074.073-.209.127-.365-.408.019-.787.02-1.154.034-.03-.2-.06-.382-.107-.631.6-.453,1.211-.914,1.829-1.376-.341-.214-.739-.456-1.049-.643-.793.085-1.484.163-2.263.25.251-.305.381-.473.532-.649-.89.17-2-.064-2.009-.483.207-.123.457-.264.77-.451.007-.218.009-.47.016-.711a1.576,1.576,0,0,1-.221.057c-.009.164-.011.339-.023.568-.69.286-1.4.58-2.215.926.081-.758.838-1.133,1.491-1.622-.433.059-.864.119-1.365.19-.006-.154-.017-.332-.027-.541.368-.091.644-.161.9-.224-.008-.209-.02-.376-.029-.586-.348.038-.731.083-1.122.125-.075.231-.132.421-.195.6a9.649,9.649,0,0,0-1.354.609c-.445.278-.782.56-1.2.248.712-.459,1.351-.885,1.956-1.282.209-.387.4-.723.614-1.131.783-.273,1.565-.536,2.632-.9-.764.068-1.282.1-1.814.149.579-.347,1.158-.693,1.73-1.04a.482.482,0,0,1-.034-.082c-.28.1-.557.2-.9.312-.786-1.067-2.256-1.505-3.95-1.736a.908.908,0,0,1-.4-.22,17.255,17.255,0,0,0-7.145-3.056c-.7-.144-1.379-.338-2.045-.531-1.129-.336-2.18-.77-3.37-1.037q-1.185-.268-2.385-.5l.106-1.357-3.214.73c-.02,0-.035.007-.054,0l-.014,0c-.233-.044-.472-.088-.706-.143.4-.669,1.057-.454,1.5-.523.83-.124,1.65-.206,2.5-.3L59.8,3.76c.271-.686.419-1.06.6-1.507-.029-.048-.117-.2-.271-.456.509-.1.819-.158,1.417-.26-.408-.146-.611-.218-.84-.295.185-.271.387-.56.635-.909-.359.014-.646.028-.911.046-.19.3-.346.544-.418.665-.665.082-1.179.151-1.788.229.513-.443.911-.8,1.293-1.144-.959-.488-1.87.536-2.792.625-.255-.168-.531-.339-.865-.54L54.8.877c.352.083.551.122.89.2-.226.253-.445.507-.738.839-.264-.236-.414-.367-.591-.513-.3.231-.58.434-1.08.813.154-.449.244-.689.334-.95-.183,0-.359,0-.624.01.009.287.016.507.016.671-.634.273-1.162.506-1.747.763-.05.1-.127.278-.245.548-.636-.091-1.165-.155-1.68-.228-.033.149-.076.329-.128.542-.3.067-.553.119-.794.172a.67.67,0,0,1-.021.074c-.591-.051-1.255-.047-1.989-.085-.177-.453-.177-.453-1.536-.47l-.306,1.922c-.414.007-.828.025-1.243.043-.135.08-.357.2-.627.361,0-.955-1.666-.225-1.964-.85-.053-.094-.744.071-1.145.168-.354.092-.706.316-1.058.4-.464.11-.92.144-1.456.223.263-.359.415-.556.708-.953-1.3.265-2.36.489-3.408.7-.1.205-.16.351-.268.577-.6-.052-1.142-.107-1.786-.177-.211.628-.414,1.236-.606,1.8.426-.072.715-.119,1-.165a.832.832,0,0,1,.053.161c-.771.527-1.542,1.054-2.349,1.6,1.023.221,1.65-.589,2.751-1.168-.263.676-.439,1.135-.621,1.592a6.121,6.121,0,0,1-3.729.349c-.392.219-.719.4-.755.42-.85.044-1.448.069-2.088.1-.23-.154-.5-.347-.7-.473a11.924,11.924,0,0,1-3.431.205c-.523.014-1.045.027-1.446.036-.537.934-1.065,1.858-1.594,2.782.19-.072.414-.171.73-.291.005.483.013.935.016,1.44-.6.112-1.055.191-1.466.264-.388-.219-.728-.432-1.069-.623.067.382.135.765.2,1.18-.886.369-1.64.689-2.723,1.151.887-.149,1.484-.24,2.1-.34-.012.3-.026.524-.046.828.782-.2,1.489-.371,2.249-.548-.009.262-.009.493-.012.679-.6.156-1.1.284-1.614.408.095.3.165.506.257.772q1-.566,1.9-1.081c-.079-.252-.152-.493-.225-.745.47-.2.914-.386,1.413-.59.053-.365.1-.7.158-1.163.783.253,1.46.481,2.119.7-.333.611-.574,1.049-.817,1.5a10.066,10.066,0,0,0,1.744,1.257,17.126,17.126,0,0,0,2.542.745c-1.806.512-3.221.883-4.235,1.935-.508.081-.988.156-1.311.208-.187.347-.326.613-.537,1.011-.468-.143-.8-.235-1.135-.337-.037.039-.14.123-.2.17a12.078,12.078,0,0,0-1.382-.3,15.365,15.365,0,0,0-1.644.052,17.194,17.194,0,0,1-4.539.718l-.252.182.249-.182c-.115-.309-.228-.617-.322-.872l-.7.38c.085-.477.153-.856.261-1.464l-2.692,1.4.072.289c-.455.525-.738.853-1.157,1.337l.594-.243,3.232-1.359c.07.42.114.679.157.936a5.645,5.645,0,0,1-2.532.475c.133.644,1.173-.021,1.615.184.289.557-.411.9-.9,1.19C7.726,24.08,6.635,24,5.722,23.926a12.5,12.5,0,0,0-1.712,1.13,10.671,10.671,0,0,0-1.155,1.5c-.306-.065-.551-.122-.883-.2-.592.487-1.2.982-1.971,1.609.531.052.892.093,1.248.133-.157.471-.312.921-.487,1.445.642-.293,1.072-.485,1.609-.728-.04.369-.063.628-.087.823.529-.232.958-.413,1.429-.621.015.442.022.76.035,1.136-.445.058-.884.117-1.316.176.021.3.194.489.433.457.979-.115,1.032-.107,1.036.542a2,2,0,0,0,.055.37c.482.058.892.1,1.227.141.439.556.841,1.064,1.224,1.546.521.085,1.606-.541,1.448.315-.342.117-.657.226-.977.334.318.769,1.192-.237,1.416-.172.62.34,1.026.574,1.446.808-.132.19-.271.389-.381.55.427.072.794.135,1.161.208h0a.144.144,0,0,1,0,.027l.042-.022h0l.005,0-.031-.008-.017-.007a3.526,3.526,0,0,0,2.635-1.69c.517.424.9.732,1.353,1.092-.323.437-.67.914-1.018,1.393.1.112.209.238.35.411-.281.191-.541.373-.672.465.227.35.346.532.436.665-.677.31-1.248.569-1.94.888.507.007.791.014,1.013.024.395-.241.794-.47,1.337-.8.059,1.183-1.663,1.268-2.163,2.02.764-.221,1.44-.432,2.212-.663.038-.2.085-.428.171-.865.459.317.752.524,1.065.744-.425.445-.792.831-1,1.055l-1.691.747c.569.224.9.359,1.314.527-.077.483-.159,1.043-.262,1.665.212.051.53.13.769.185-.285.476-.531.868-.776,1.273-.5.1-1,.209-1.51.312.27-.752-.079-.866-.924-.5-.1.206-.19.391-.288.586s-.219.408-.252.469c.8-.107,1.508-.2,2.385-.321-.278.389-.433.609-.58.818-.4.063-.743.124-1.218.212.167.188.271.312.389.439.475-.24.836-.419,1.3-.661.553.638,1.069,1.227,1.647,1.892-.982.233-1.839.431-2.76.651.116.675.219,1.283.3,1.8,1.416.146,2.248.769,2.1,1.451l3.221-.136c-.473.526-1.359,1.047-.773,1.472q.491-.046.962-.095a2.327,2.327,0,0,1,.189.17c-.323.206-.645.4-1.082.67.611.064.92.087,1.074.109.214.721.4,1.34.6,2.039-.465.285-1.01.625-1.483.91a6.949,6.949,0,0,1-1.494.051c-.993-.251-.964-.279-1.8.525-.172-.124-.338-.247-.56-.409-.307.176-.558.337-.826.464-.327.152-.667.268-.986.421-.093.052-.124.18-.234.35.529-.232.958-.412,1.479-.646-.1.392-.174.667-.208.815-.823.345-1.5.633-2.126.907-.065.43-.108.754-.152,1.032.331-.062.606-.111.977-.18-.32.406-.556.7-.746.938.081.845,1.213.523,1.914.644-.152.275-.3.54-.444.805.254.112.464.2.667.269-.165.252-.3.463-.453.683.369-.036.657-.072.9-.092.045.259.075.449.111.652l2.206-1.059c.056.37.109.674.159.956.913-.221,1.7.032,2.648-.777-.525.8-.916,1.4-1.282,1.947a3.1,3.1,0,0,0,3.689.7c-.12.509-.216.913-.315,1.349.332.223.665.434,1.1.727-.8.293-1.429.533-2.235.836.535.394.921.691,1.329.989-1.166.692-1.268.019-1.808-.311-.335.567-.6.992-.764,1.286.6.974,1.144,1.841,1.683,2.718.5-.1.9-.2,1.313-.3.144.207.258.377.306.439-.182.535-.32.944-.532,1.583,1.257-.425,2.172-.746,2.9-.994.138-.333.208-.519.375-.946.328.266.582.379.648.563s-.066.442-.116.7c.755-.344,1.354-.61,1.947-.877.56-.667.56-.667,1.047-.511,0,.017.005.039.009.057,0-.019-.007-.037-.009-.057l-.185.155.211.02v.005l-.531.484c.04.237.079.483.12.719.3-.088.5-.148.737-.213.039-.215.078-.418.139-.728,1.542.252,2.99.5,4.438.74-.036.094-.072.188-.1.281l-1.446.345c-.352.466-1.015.986-.637,1.534,1.008-.68,1.958-1.313,2.994-2,.218.217.356.346.481.464.025.025.05.05.074.076l.136-.849c1.342-1.467,6.9-3.8,7.354-3.524a18.309,18.309,0,0,0,2.761,1.161c.885-.807,1.553-.482,2.3-.662.308-.2.668-.432,1.072-.7.048-.245.1-.535.165-.877.351-.136.644-.249.953-.37l.265-.61c.544-.1,1-.187,1.391-.264.337-.523.62-.965.863-1.337.722-.128,1.279-.236,1.838-.343.065-.111.137-.244.217-.386.347.06.6.1.807.136.329-.2.6-.355,1.021-.591,0,.407.005.7,0,1.021.056-.024.113-.049.162-.075.268-.116.529-.232.8-.347,0,.3,0,.527,0,.735.475-.086.826-.157,1.019-.2.18.18.279.281.429.434.252-.337.415-.556.607-.8.208.085.384.165.619.264-.4.448-.738.851-1.138,1.309-.516.093-1,.178-1.574.272-.251.3-.539.659-.987,1.21-.016.02-.037.038-.06.068a.119.119,0,0,1,.056-.014,7.7,7.7,0,0,0,.88-.313,3.811,3.811,0,0,1,1.8-.349c.563-.535,1.046-.411,1.714-.305a9.109,9.109,0,0,1-2.805,2.687c.392-.911.666-1.552.94-2.194-.85.34-1.7.692-2.578,1.049-.12.049-.246.1-.372.145.139.041.256.092.354.128.451.184.413.387-.088,1.073-.053.07-.115.149-.177.239a.848.848,0,0,0,.164-.021,7.415,7.415,0,0,1,1.166-.087,11.256,11.256,0,0,0,4.593-.633,23,23,0,0,0,2.26-1.052c-.044-.269-.089-.529-.152-.889.794-.172,1.484-.316,2.1-.459.224.218.381.361.613.58.27-.685.486-1.215.721-1.8a4.933,4.933,0,0,0,2.749-2.3c.3-.672.708-1.349,1-1.889.694-.264,1.087-.406,1.478-.548.137-.409.247-.733.349-1.037.778-.219,1.443-.4,2.11-.59.283.1.561.179.942.31.516-1-1.28-.753-.747-1.665.417-.117.868-.24,1.383-.386-.066-.184-.124-.358-.227-.647l2.716-.922c-.214-.194-.415-.365-.628-.561.053-.212.128-.464.2-.718.3-.034.54-.065.731-.083-.466-1.01-.938-2.01-1.458-3.116.542-.065.835-.1.939-.119l2.829-2.826a2.345,2.345,0,0,0-.849-2.118c-.4-.332-.218-.832.566-1.413a2.1,2.1,0,0,0,2.1-1.655c1.092,0,2.071.008,3.061-.005a17.426,17.426,0,0,0,2.21-.093,5.951,5.951,0,0,0,2.96-1.709c.24-1.031-.32-1.659-1.285-2.07m-70.845.61c-.027,0,.047-.147.119-.345-1.072.7-2.3.311-3.352,1.369-.237-.309-.442-.59-.661-.874.6-.321,1.087-.58,1.856-1-.781.033-1.291.059-1.775.077-.029-.2-.062-.36-.087-.539.706-.416,1.406-.821,2.17-1.262l2.7.68.625-.492,2.294,1.39c.034-.007.317-.065.71-.141-.168.371-.292.628-.41.886a.921.921,0,0,1-.316.053c-1.128-.335-2.7.4-3.877.2m.37,13.027c1.166-.537,2.118-.972,3.034-1.38.05-.564.016-1.019.95-1.248.763-.364,1.325-.361,1.59.093.439-.146.789-.272,1.145-.386l1.045.28c1.148.338,1.649,1.342,3.364,1.092.076-.012.115.147.249.321a3.415,3.415,0,0,1-1.047.279c-.694-.187-1.628-.045-2.219-.4a3.924,3.924,0,0,0-1.316-.132c.25-.293.552-.657.856-1.02-.356.267-.711.536-1.191.907-.676-.315-1.334-.617-1.991-.92-.121.379-.235.747-.37,1.189-1.3.276-2.368,1.661-4.1,1.328m6.609,11.409c-.138.179-.289.365-.434.543.349.806.47.505-.953,1.2a2.391,2.391,0,0,1-2.008,1.428c.166-.5.325-1,.526-1.6.146-.1.434-.3.731-.512-.221-.4-.444-.809-.6-1.106-.55.076-.925.122-1.349.171.616-1.3,2.206-.675,2.581-1.313.536-.012,1.024-.02,1.519-.026-.04.061-.078.121-.125.191-.209.069-.419.139-.636.217,0,.044-.016.1-.019.141.426-.072.852-.143,1.312-.209.121.16.259.355.452.624-.354.093-.672.168-1,.253m2.63,1.8c-.924.044-1.706.075-2.672.125.1-.261.205-.563.347-.949.494.015.818.027,1.249.045.29-.221.661-.5,1.2-.9.147.01.477.035.9.051-.409.645-.749,1.189-1.032,1.632M38.743,9.961c-1.44.575-1.642-.5-3.032-.332-.09.032-.532.2-.98.367-.153-.109-.312-.231-.47-.352.311-.373.636-.755.976-1.157.968-.3,1.4-.108,1.3.723.692-.242,1.355-.466,2.094-.712.844.251.516.83.108,1.464m.4-.041c.39-.889.721-1.644,1.077-2.449,1.074.327-.773,1.844.954,1.77-.781.866-1.276.412-2.031.679M49.2,3.815c0,.045.007.079.01.122-.094-.013-.18-.036-.274-.05a2.845,2.845,0,0,0-.3-.043c.19-.005.375-.023.564-.029m3.938.955c.489-.019.993-.047,1.543-.068-.105.118-.209.224-.313.319-.412-.081-.824-.171-1.23-.251m6.946,6.144c-.167-.1-.342-.2-.665-.38l-.152.033.111-1.4,1.4,1.736c-.289.047-.237-.472-.7.011M77.686,50A4.459,4.459,0,0,1,74.648,51.8c.712-.557,1.367-1.068,2.058-1.607-.157-.143-.275-.26-.495-.466.9-.213,1.695-.4,2.607-.607.034.224.057.359.1.584-.443.1-.817.192-1.23.287" transform="translate(0 0)" fill="#f0c7ce"/>
    <path id="Path_21114" data-name="Path 21114" d="M.022.035.04,0,0,.027l.012,0,.01,0" transform="translate(90.417 17.916)" fill="#f0c7ce"/>
    <path id="Path_21115" data-name="Path 21115" d="M.246,2.036C.168,2.266.089,2.5,0,2.763l.8.169L2.982,1.348C2.788.924,3.195.14,2.213,0L1.576,1.264l-1.33.771" transform="translate(88.226 17.952)" fill="#f0c7ce"/>
    <path id="Path_21116" data-name="Path 21116" d="M4.068.651C3.988.36,3.944.2,3.888,0L1.744.914c-.12.307-.2.524-.277.712L0,2.222l.1.254C1.712,2.47,2.686,1.166,4.068.651" transform="translate(0.787 23.363)" fill="#f0c7ce"/>
    <path id="Path_21117" data-name="Path 21117" d="M2.214.211A3.965,3.965,0,0,0,.937.725,6.151,6.151,0,0,0,0,1.654l.221.116L1.864.6,3.377.476c-.287.363-.48.608-.787,1L4.207.764,4.006,0A17.6,17.6,0,0,0,2.214.211" transform="translate(25.309 74.702)" fill="#f0c7ce"/>
    <path id="Path_21118" data-name="Path 21118" d="M3.379.011C1.683-.144,1.312,1.407,0,1.764c.344.416.135,1.082,1.173.851-.043-.259-.087-.517-.124-.742L3.379.011" transform="translate(15.798 11.034)" fill="#f0c7ce"/>
    <path id="Path_21119" data-name="Path 21119" d="M.035,0h0V0l0,0c-.012,0-.02,0-.031.005S0,.026,0,.036L.012.028,0,.039C.016.052.028.055.041.068A.227.227,0,0,0,.034,0Z" transform="translate(16.971 13.64)" fill="#f0c7ce"/>
    <path id="Path_21120" data-name="Path 21120" d="M1.569,1.36,2.686.611C2.124.436,1.964-.153.977.037L0,1.437C.989.982,1.6.824,1.569,1.36" transform="translate(87.73 17.332)" fill="#f0c7ce"/>
    <path id="Path_21121" data-name="Path 21121" d="M1.947.821c.036-.257.07-.491.116-.821L0,.191C.632.483.69,1.369,1.947.821" transform="translate(85.767 19.06)" fill="#f0c7ce"/>
    <path id="Path_21122" data-name="Path 21122" d="M.013,0h0" transform="translate(41.443 72.69)" fill="#f0c7ce"/>
    <path id="Path_21123" data-name="Path 21123" d="M.885,0,0,.845l2.35.237L2.824.869.885,0" transform="translate(39.107 71.606)" fill="#f0c7ce"/>
    <path id="Path_21124" data-name="Path 21124" d="M.76,1.611C1.754,1.128,2.2.613,2.15,0L0,1.115l.76.5" transform="translate(8.373 35.459)" fill="#f0c7ce"/>
    <path id="Path_21125" data-name="Path 21125" d="M1.108,1.2,2.6.688,1.468.617C1.485.444,1.5.292,1.529,0L.216.686,0,.863C.042.872.087.877.125.888l.983.31" transform="translate(16.7 9.718)" fill="#f0c7ce"/>
    <path id="Path_21126" data-name="Path 21126" d="M1.173,1.236,3.641,0C2.385-.055,1.265,1.179.239.991L0,1.226a.54.54,0,0,0,.128.025c.365,0,.732-.01,1.046-.015" transform="translate(50.129 0.122)" fill="#f0c7ce"/>
  </g>
</svg>
